<?xml version="1.0" encoding="UTF-8" standalone="no"?>
<!-- Generator: Adobe Illustrator 17.0.0, SVG Export Plug-In . SVG Version: 6.00 Build 0)  -->

<svg
   xmlns:dc="http://purl.org/dc/elements/1.1/"
   xmlns:cc="http://creativecommons.org/ns#"
   xmlns:rdf="http://www.w3.org/1999/02/22-rdf-syntax-ns#"
   xmlns:svg="http://www.w3.org/2000/svg"
   xmlns="http://www.w3.org/2000/svg"
   xmlns:sodipodi="http://sodipodi.sourceforge.net/DTD/sodipodi-0.dtd"
   xmlns:inkscape="http://www.inkscape.org/namespaces/inkscape"
   version="1.1"
   id="Warstwa_1"
   x="0px"
   y="0px"
   width="707.1px"
   height="200px"
   viewBox="0 0 707.1 200"
   enable-background="new 0 0 707.1 200"
   xml:space="preserve"
   sodipodi:docname="logo.svg"
   inkscape:version="0.92.3 (2405546, 2018-03-11)"><metadata
   id="metadata37"><rdf:RDF><cc:Work
       rdf:about=""><dc:format>image/svg+xml</dc:format><dc:type
         rdf:resource="http://purl.org/dc/dcmitype/StillImage" /></cc:Work></rdf:RDF></metadata><defs
   id="defs35" /><sodipodi:namedview
   pagecolor="#ffffff"
   bordercolor="#666666"
   borderopacity="1"
   objecttolerance="10"
   gridtolerance="10"
   guidetolerance="10"
   inkscape:pageopacity="0"
   inkscape:pageshadow="2"
   inkscape:window-width="1920"
   inkscape:window-height="1017"
   id="namedview33"
   showgrid="false"
   inkscape:zoom="1.7762693"
   inkscape:cx="380.63864"
   inkscape:cy="59.456469"
   inkscape:window-x="-8"
   inkscape:window-y="1072"
   inkscape:window-maximized="1"
   inkscape:current-layer="Warstwa_1" />









<text
   xml:space="preserve"
   style="font-style:normal;font-weight:normal;font-size:69.26720428px;line-height:1.25;font-family:sans-serif;letter-spacing:0px;word-spacing:0px;fill:#000000;fill-opacity:1;stroke:none;stroke-width:1.73168004"
   x="261.53366"
   y="197.97539"
   id="text1454-8-4-0"><tspan
     sodipodi:role="line"
     id="tspan1452-06-3-1"
     x="261.53366"
     y="197.97539"
     style="font-style:italic;font-variant:normal;font-weight:bold;font-stretch:normal;font-family:'The Bold Font';-inkscape-font-specification:'The Bold Font Bold Italic';fill:#000000;stroke-width:1.73168004">YSTOL.org</tspan></text>
<path
   style="opacity:1;vector-effect:none;fill:#c25d02;fill-opacity:1;stroke:none;stroke-width:35.38287354;stroke-linecap:round;stroke-linejoin:miter;stroke-miterlimit:4;stroke-dasharray:none;stroke-dashoffset:0;stroke-opacity:1"
   d="M 124.87448,2.5953055 103.36239,39.855637 h -3.761373 l -9.155329,-8.874145 4.366012,12.038693 -4.366012,12.039319 9.153484,-8.874157 h 3.763798 l 21.51151,37.259729 h 46.67882 20.89139 l -46.67882,80.850964 -13.33689,23.09978 -6.66816,11.54928 h 13.33632 13.33747 66.68328 l 33.34194,-57.75002 h 66.68376 L 359.15426,71.895202 319.14359,2.5953055 H 256.1705 239.12294 171.5533 Z m 4.33148,15.0146695 h 8.66226 l 4.33136,7.501963 -4.33136,7.501964 h -8.66226 l -4.33148,-7.501964 z m 47.72987,8.085103 h 10.00275 10.00229 33.70958 44.94436 30.21189 l 26.67319,46.200124 -26.67319,46.200118 h -46.15411 -7.19276 -13.33631 l -33.34251,57.75002 h -40.00952 l 46.67825,-80.849185 6.66873,-11.551079 h 53.3464 6.66874 6.66815 l 6.66874,-11.549874 -6.66874,-11.549886 h -6.66815 -3.5388 -44.94436 -33.70958 -10.00229 -10.00275 L 166.93354,43.020185 Z m -47.72987,27.731414 h 8.66226 l 4.33136,7.501964 -4.33136,7.501349 h -8.66226 l -4.33148,-7.501349 z"
   id="path1865-0-4-4-3-5"
   inkscape:connector-curvature="0" /></svg>