<?xml version="1.0" encoding="UTF-8" standalone="no"?>
<!-- Generator: Adobe Illustrator 17.0.0, SVG Export Plug-In . SVG Version: 6.00 Build 0)  -->

<svg
   xmlns:dc="http://purl.org/dc/elements/1.1/"
   xmlns:cc="http://creativecommons.org/ns#"
   xmlns:rdf="http://www.w3.org/1999/02/22-rdf-syntax-ns#"
   xmlns:svg="http://www.w3.org/2000/svg"
   xmlns="http://www.w3.org/2000/svg"
   xmlns:sodipodi="http://sodipodi.sourceforge.net/DTD/sodipodi-0.dtd"
   xmlns:inkscape="http://www.inkscape.org/namespaces/inkscape"
   version="1.1"
   id="Warstwa_1"
   x="0px"
   y="0px"
   width="173.2px"
   height="200px"
   viewBox="0 0 173.2 200"
   enable-background="new 0 0 173.2 200"
   xml:space="preserve"
   sodipodi:docname="sygnet.svg"
   inkscape:version="0.92.3 (2405546, 2018-03-11)"><metadata
   id="metadata23"><rdf:RDF><cc:Work
       rdf:about=""><dc:format>image/svg+xml</dc:format><dc:type
         rdf:resource="http://purl.org/dc/dcmitype/StillImage" /></cc:Work></rdf:RDF></metadata><defs
   id="defs21" /><sodipodi:namedview
   pagecolor="#ffffff"
   bordercolor="#666666"
   borderopacity="1"
   objecttolerance="10"
   gridtolerance="10"
   guidetolerance="10"
   inkscape:pageopacity="0"
   inkscape:pageshadow="2"
   inkscape:window-width="1920"
   inkscape:window-height="1017"
   id="namedview19"
   showgrid="false"
   inkscape:zoom="2.36"
   inkscape:cx="156.15564"
   inkscape:cy="54.511703"
   inkscape:window-x="-8"
   inkscape:window-y="1072"
   inkscape:window-maximized="1"
   inkscape:current-layer="Warstwa_1" />








<path
   style="opacity:1;vector-effect:none;fill:#c25d02;fill-opacity:1;stroke:none;stroke-width:22.37682915;stroke-linecap:round;stroke-linejoin:miter;stroke-miterlimit:4;stroke-dasharray:none;stroke-dashoffset:0;stroke-opacity:1"
   d="M 23.859844,42.21974 10.255171,65.78391 H 7.8764 l -5.7900114,-5.612182 2.7611579,7.613508 -2.7611579,7.613906 5.788848,-5.612197 h 2.3803014 l 13.604306,23.563793 h 29.52061 13.212121 l -29.520603,51.131752 -8.434514,14.60875 -4.217076,7.304 h 8.434153 8.43488 42.171816 l 21.086109,-36.52225 h 42.17214 L 172.02301,86.046374 146.71948,42.21974 H 106.89405 96.112832 53.380454 Z m 2.739313,9.495573 h 5.478185 l 2.739237,4.744388 -2.739237,4.744388 h -5.478185 l -2.739313,-4.744388 z m 30.185314,5.113178 h 6.325937 6.325641 21.318606 28.423715 19.1066 l 16.86865,29.217883 -16.86865,29.217876 h -29.18879 -4.54884 -8.434142 L 75.026728,151.7865 H 49.723921 l 29.520243,-51.13062 4.217435,-7.305142 h 33.737331 4.21745 4.21706 l 4.21745,-7.304375 -4.21745,-7.304374 H 121.41638 119.17837 90.754655 69.436049 63.110408 56.784471 L 50.458824,67.785236 Z M 26.599157,74.366383 h 5.478185 l 2.739237,4.744399 -2.739237,4.743995 h -5.478185 l -2.739313,-4.743995 z"
   id="path1865-0-4-4-3-5"
   inkscape:connector-curvature="0" /></svg>