<?xml version="1.0" encoding="iso-8859-1"?>
<!-- Generator: Adobe Illustrator 17.1.0, SVG Export Plug-In . SVG Version: 6.00 Build 0)  -->
<!DOCTYPE svg PUBLIC "-//W3C//DTD SVG 1.0//EN" "http://www.w3.org/TR/2001/REC-SVG-20010904/DTD/svg10.dtd">
<svg version="1.0" xmlns="http://www.w3.org/2000/svg" xmlns:xlink="http://www.w3.org/1999/xlink" x="0px" y="0px" width="110px"
	 height="110px" viewBox="0 0 110 110" style="enable-background:new 0 0 110 110;" xml:space="preserve">
<g id="Artboard" style="display:none;">
	<rect x="-1092" y="-166" style="display:inline;fill:#808080;" width="1360" height="442"/>
</g>
<g id="R-Multicolor" style="display:none;">
	<circle style="display:inline;fill:#25B7D3;" cx="55" cy="55" r="55"/>
	<g style="display:inline;">
		<path style="fill:#3E3E3F;" d="M65,85c0,1.105-0.895,2-2,2H47c-1.105,0-2-0.895-2-2V57c0-1.105,0.895-2,2-2h16
			c1.105,0,2,0.895,2,2V85z"/>
		<path style="fill:#3E3E3F;" d="M87,85c0,1.105-0.895,2-2,2H69c-1.105,0-2-0.895-2-2V57c0-1.105,0.895-2,2-2h16
			c1.105,0,2,0.895,2,2V85z"/>
		<path style="fill:#3E3E3F;" d="M43,85c0,1.105-0.895,2-2,2H25c-1.105,0-2-0.895-2-2V57c0-1.105,0.895-2,2-2h16
			c1.105,0,2,0.895,2,2V85z"/>
		<circle style="fill:#FA5655;" cx="38.5" cy="59.5" r="1.5"/>
		<circle style="fill:#F99134;" cx="33.5" cy="59.5" r="1.5"/>
		<circle style="fill:#FACB1B;" cx="28.5" cy="59.5" r="1.5"/>
		<path style="fill:#F0F1F1;" d="M76,41.562c0-3.954-2.442-7.332-5.898-8.723c-2.738-6.696-7.162-9.417-12.579-9.417
			c-5.092,0-9.506,2.902-11.67,7.147c-3.443-1.466-7.325,0.969-7.468,4.74C35.251,36.414,33,39.393,33,42.906
			c0,4.453,3.61,8.062,8.062,8.062h26.875C67.937,50.969,76,49.473,76,41.562z"/>
		<path style="fill:#FFFFFF;" d="M57.523,23.422c-5.092,0-9.506,2.902-11.67,7.147c-3.443-1.466-7.325,0.969-7.468,4.74
			C35.251,36.414,33,39.393,33,42.906c0,4.228,3.257,7.69,7.398,8.029l24.923-24.924C63.083,24.225,60.45,23.422,57.523,23.422z"/>
		<circle style="fill:#FA5655;" cx="60.5" cy="59.5" r="1.5"/>
		<circle style="fill:#F99134;" cx="55.5" cy="59.5" r="1.5"/>
		<circle style="fill:#FACB1B;" cx="50.5" cy="59.5" r="1.5"/>
		<circle style="fill:#FA5655;" cx="82.5" cy="59.5" r="1.5"/>
		<circle style="fill:#F99134;" cx="77.5" cy="59.5" r="1.5"/>
		<circle style="fill:#FACB1B;" cx="72.5" cy="59.5" r="1.5"/>
		<rect x="23" y="80" style="fill:#818284;" width="20" height="2"/>
		<rect x="23" y="75" style="fill:#818284;" width="20" height="2"/>
		<rect x="23" y="70" style="fill:#818284;" width="20" height="2"/>
		<rect x="23" y="65" style="fill:#818284;" width="20" height="2"/>
		<rect x="45" y="80" style="fill:#818284;" width="20" height="2"/>
		<rect x="45" y="75" style="fill:#818284;" width="20" height="2"/>
		<rect x="45" y="70" style="fill:#818284;" width="20" height="2"/>
		<rect x="45" y="65" style="fill:#818284;" width="20" height="2"/>
		<rect x="67" y="80" style="fill:#818284;" width="20" height="2"/>
		<rect x="67" y="75" style="fill:#818284;" width="20" height="2"/>
		<rect x="67" y="70" style="fill:#818284;" width="20" height="2"/>
		<rect x="67" y="65" style="fill:#818284;" width="20" height="2"/>
	</g>
</g>
<g id="Multicolor_1_" style="display:none;">
	<g style="display:inline;">
		<path style="fill:#3E3E3F;" d="M65,85c0,1.105-0.895,2-2,2H47c-1.105,0-2-0.895-2-2V57c0-1.105,0.895-2,2-2h16
			c1.105,0,2,0.895,2,2V85z"/>
		<path style="fill:#3E3E3F;" d="M87,85c0,1.105-0.895,2-2,2H69c-1.105,0-2-0.895-2-2V57c0-1.105,0.895-2,2-2h16
			c1.105,0,2,0.895,2,2V85z"/>
		<path style="fill:#3E3E3F;" d="M43,85c0,1.105-0.895,2-2,2H25c-1.105,0-2-0.895-2-2V57c0-1.105,0.895-2,2-2h16
			c1.105,0,2,0.895,2,2V85z"/>
		<circle style="fill:#FA5655;" cx="38.5" cy="59.5" r="1.5"/>
		<circle style="fill:#F99134;" cx="33.5" cy="59.5" r="1.5"/>
		<circle style="fill:#FACB1B;" cx="28.5" cy="59.5" r="1.5"/>
		<path style="fill:#F0F1F1;" d="M76,41.562c0-3.954-2.442-7.332-5.898-8.723c-2.738-6.696-7.162-9.417-12.579-9.417
			c-5.092,0-9.506,2.902-11.67,7.147c-3.443-1.466-7.325,0.969-7.468,4.74C35.251,36.414,33,39.393,33,42.906
			c0,4.453,3.61,8.062,8.062,8.062h26.875C67.937,50.969,76,49.473,76,41.562z"/>
		<path style="fill:#FFFFFF;" d="M57.523,23.422c-5.092,0-9.506,2.902-11.67,7.147c-3.443-1.466-7.325,0.969-7.468,4.74
			C35.251,36.414,33,39.393,33,42.906c0,4.228,3.257,7.69,7.398,8.029l24.923-24.924C63.083,24.225,60.45,23.422,57.523,23.422z"/>
		<circle style="fill:#FA5655;" cx="60.5" cy="59.5" r="1.5"/>
		<circle style="fill:#F99134;" cx="55.5" cy="59.5" r="1.5"/>
		<circle style="fill:#FACB1B;" cx="50.5" cy="59.5" r="1.5"/>
		<circle style="fill:#FA5655;" cx="82.5" cy="59.5" r="1.5"/>
		<circle style="fill:#F99134;" cx="77.5" cy="59.5" r="1.5"/>
		<circle style="fill:#FACB1B;" cx="72.5" cy="59.5" r="1.5"/>
		<rect x="23" y="80" style="fill:#818284;" width="20" height="2"/>
		<rect x="23" y="75" style="fill:#818284;" width="20" height="2"/>
		<rect x="23" y="70" style="fill:#818284;" width="20" height="2"/>
		<rect x="23" y="65" style="fill:#818284;" width="20" height="2"/>
		<rect x="45" y="80" style="fill:#818284;" width="20" height="2"/>
		<rect x="45" y="75" style="fill:#818284;" width="20" height="2"/>
		<rect x="45" y="70" style="fill:#818284;" width="20" height="2"/>
		<rect x="45" y="65" style="fill:#818284;" width="20" height="2"/>
		<rect x="67" y="80" style="fill:#818284;" width="20" height="2"/>
		<rect x="67" y="75" style="fill:#818284;" width="20" height="2"/>
		<rect x="67" y="70" style="fill:#818284;" width="20" height="2"/>
		<rect x="67" y="65" style="fill:#818284;" width="20" height="2"/>
	</g>
</g>
<g id="Blue" style="display:none;">
	<g style="display:inline;">
		<g>
			<path style="fill:#0C333D;" d="M65,85c0,1.104-0.896,2-2,2H47c-1.104,0-2-0.896-2-2V57c0-1.104,0.896-2,2-2h16
				c1.104,0,2,0.896,2,2V85z"/>
		</g>
		<g>
			<path style="fill:#0C333D;" d="M87,85c0,1.104-0.896,2-2,2H69c-1.104,0-2-0.896-2-2V57c0-1.104,0.896-2,2-2h16
				c1.104,0,2,0.896,2,2V85z"/>
		</g>
		<g>
			<path style="fill:#0C333D;" d="M43,85c0,1.104-0.896,2-2,2H25c-1.104,0-2-0.896-2-2V57c0-1.104,0.896-2,2-2h16
				c1.104,0,2,0.896,2,2V85z"/>
		</g>
		<g>
			<circle style="fill:#00B7E5;" cx="38.5" cy="59.5" r="1.5"/>
		</g>
		<g>
			<circle style="fill:#00B7E5;" cx="33.5" cy="59.5" r="1.5"/>
		</g>
		<g>
			<circle style="fill:#00B7E5;" cx="28.5" cy="59.5" r="1.5"/>
		</g>
		<g>
			<path style="fill:#E1F5FA;" d="M76,41.563c0-3.954-2.442-7.332-5.898-8.723c-2.738-6.697-7.162-9.418-12.579-9.418
				c-5.092,0-9.506,2.902-11.669,7.147c-3.443-1.466-7.325,0.969-7.468,4.74C35.25,36.414,33,39.394,33,42.906
				c0,4.453,3.609,8.062,8.062,8.062h26.875C67.938,50.969,76,49.474,76,41.563z"/>
		</g>
		<g>
			<path style="fill:#FFFFFF;" d="M57.523,23.422c-5.092,0-9.506,2.902-11.669,7.147c-3.443-1.466-7.325,0.969-7.468,4.74
				C35.25,36.414,33,39.394,33,42.906c0,4.229,3.257,7.691,7.397,8.029l24.924-24.924C63.083,24.226,60.45,23.422,57.523,23.422z"/>
		</g>
		<g>
			<circle style="fill:#00B7E5;" cx="60.5" cy="59.5" r="1.5"/>
		</g>
		<g>
			<circle style="fill:#00B7E5;" cx="55.5" cy="59.5" r="1.5"/>
		</g>
		<g>
			<circle style="fill:#00B7E5;" cx="50.5" cy="59.5" r="1.5"/>
		</g>
		<g>
			<circle style="fill:#00B7E5;" cx="82.5" cy="59.5" r="1.5"/>
		</g>
		<g>
			<circle style="fill:#00B7E5;" cx="77.5" cy="59.5" r="1.5"/>
		</g>
		<g>
			<circle style="fill:#00B7E5;" cx="72.5" cy="59.5" r="1.5"/>
		</g>
		<g>
			<rect x="23" y="80" style="fill:#468595;" width="20" height="2"/>
		</g>
		<g>
			<rect x="23" y="75" style="fill:#468595;" width="20" height="2"/>
		</g>
		<g>
			<rect x="23" y="70" style="fill:#468595;" width="20" height="2"/>
		</g>
		<g>
			<rect x="23" y="65" style="fill:#468595;" width="20" height="2"/>
		</g>
		<g>
			<rect x="45" y="80" style="fill:#468595;" width="20" height="2"/>
		</g>
		<g>
			<rect x="45" y="75" style="fill:#468595;" width="20" height="2"/>
		</g>
		<g>
			<rect x="45" y="70" style="fill:#468595;" width="20" height="2"/>
		</g>
		<g>
			<rect x="45" y="65" style="fill:#468595;" width="20" height="2"/>
		</g>
		<g>
			<rect x="67" y="80" style="fill:#468595;" width="20" height="2"/>
		</g>
		<g>
			<rect x="67" y="75" style="fill:#468595;" width="20" height="2"/>
		</g>
		<g>
			<rect x="67" y="70" style="fill:#468595;" width="20" height="2"/>
		</g>
		<g>
			<rect x="67" y="65" style="fill:#468595;" width="20" height="2"/>
		</g>
	</g>
</g>
<g id="R-Blue" style="display:none;">
	<g style="display:inline;">
		<circle style="fill:#81D2EB;" cx="55" cy="55" r="55"/>
	</g>
	<g style="display:inline;">
		<g>
			<path style="fill:#0C333D;" d="M65,85c0,1.104-0.896,2-2,2H47c-1.104,0-2-0.896-2-2V57c0-1.104,0.896-2,2-2h16
				c1.104,0,2,0.896,2,2V85z"/>
		</g>
		<g>
			<path style="fill:#0C333D;" d="M87,85c0,1.104-0.896,2-2,2H69c-1.104,0-2-0.896-2-2V57c0-1.104,0.896-2,2-2h16
				c1.104,0,2,0.896,2,2V85z"/>
		</g>
		<g>
			<path style="fill:#0C333D;" d="M43,85c0,1.104-0.896,2-2,2H25c-1.104,0-2-0.896-2-2V57c0-1.104,0.896-2,2-2h16
				c1.104,0,2,0.896,2,2V85z"/>
		</g>
		<g>
			<circle style="fill:#00B7E5;" cx="38.5" cy="59.5" r="1.5"/>
		</g>
		<g>
			<circle style="fill:#00B7E5;" cx="33.5" cy="59.5" r="1.5"/>
		</g>
		<g>
			<circle style="fill:#00B7E5;" cx="28.5" cy="59.5" r="1.5"/>
		</g>
		<g>
			<path style="fill:#E1F5FA;" d="M76,41.563c0-3.954-2.442-7.332-5.898-8.723c-2.738-6.697-7.162-9.418-12.579-9.418
				c-5.092,0-9.506,2.902-11.669,7.147c-3.443-1.466-7.325,0.969-7.468,4.74C35.25,36.414,33,39.394,33,42.906
				c0,4.453,3.609,8.062,8.062,8.062h26.875C67.938,50.969,76,49.474,76,41.563z"/>
		</g>
		<g>
			<path style="fill:#FFFFFF;" d="M57.523,23.422c-5.092,0-9.506,2.902-11.669,7.147c-3.443-1.466-7.325,0.969-7.468,4.74
				C35.25,36.414,33,39.394,33,42.906c0,4.229,3.257,7.691,7.397,8.029l24.924-24.924C63.083,24.226,60.45,23.422,57.523,23.422z"/>
		</g>
		<g>
			<circle style="fill:#00B7E5;" cx="60.5" cy="59.5" r="1.5"/>
		</g>
		<g>
			<circle style="fill:#00B7E5;" cx="55.5" cy="59.5" r="1.5"/>
		</g>
		<g>
			<circle style="fill:#00B7E5;" cx="50.5" cy="59.5" r="1.5"/>
		</g>
		<g>
			<circle style="fill:#00B7E5;" cx="82.5" cy="59.5" r="1.5"/>
		</g>
		<g>
			<circle style="fill:#00B7E5;" cx="77.5" cy="59.5" r="1.5"/>
		</g>
		<g>
			<circle style="fill:#00B7E5;" cx="72.5" cy="59.5" r="1.5"/>
		</g>
		<g>
			<rect x="23" y="80" style="fill:#468595;" width="20" height="2"/>
		</g>
		<g>
			<rect x="23" y="75" style="fill:#468595;" width="20" height="2"/>
		</g>
		<g>
			<rect x="23" y="70" style="fill:#468595;" width="20" height="2"/>
		</g>
		<g>
			<rect x="23" y="65" style="fill:#468595;" width="20" height="2"/>
		</g>
		<g>
			<rect x="45" y="80" style="fill:#468595;" width="20" height="2"/>
		</g>
		<g>
			<rect x="45" y="75" style="fill:#468595;" width="20" height="2"/>
		</g>
		<g>
			<rect x="45" y="70" style="fill:#468595;" width="20" height="2"/>
		</g>
		<g>
			<rect x="45" y="65" style="fill:#468595;" width="20" height="2"/>
		</g>
		<g>
			<rect x="67" y="80" style="fill:#468595;" width="20" height="2"/>
		</g>
		<g>
			<rect x="67" y="75" style="fill:#468595;" width="20" height="2"/>
		</g>
		<g>
			<rect x="67" y="70" style="fill:#468595;" width="20" height="2"/>
		</g>
		<g>
			<rect x="67" y="65" style="fill:#468595;" width="20" height="2"/>
		</g>
	</g>
</g>
<g id="Green" style="display:none;">
	<g style="display:inline;">
		<g>
			<path style="fill:#0A3631;" d="M65,85c0,1.104-0.896,2-2,2H47c-1.104,0-2-0.896-2-2V57c0-1.104,0.896-2,2-2h16
				c1.104,0,2,0.896,2,2V85z"/>
		</g>
		<g>
			<path style="fill:#0A3631;" d="M87,85c0,1.104-0.896,2-2,2H69c-1.104,0-2-0.896-2-2V57c0-1.104,0.896-2,2-2h16
				c1.104,0,2,0.896,2,2V85z"/>
		</g>
		<g>
			<path style="fill:#0A3631;" d="M43,85c0,1.104-0.896,2-2,2H25c-1.104,0-2-0.896-2-2V57c0-1.104,0.896-2,2-2h16
				c1.104,0,2,0.896,2,2V85z"/>
		</g>
		<g>
			<circle style="fill:#00D6C1;" cx="38.5" cy="59.5" r="1.5"/>
		</g>
		<g>
			<circle style="fill:#00D6C1;" cx="33.5" cy="59.5" r="1.5"/>
		</g>
		<g>
			<circle style="fill:#00D6C1;" cx="28.5" cy="59.5" r="1.5"/>
		</g>
		<g>
			<path style="fill:#D7FCF9;" d="M76,41.563c0-3.954-2.442-7.332-5.898-8.723c-2.738-6.697-7.162-9.418-12.579-9.418
				c-5.092,0-9.506,2.902-11.669,7.147c-3.443-1.466-7.325,0.969-7.468,4.74C35.25,36.414,33,39.394,33,42.906
				c0,4.453,3.609,8.062,8.062,8.062h26.875C67.938,50.969,76,49.474,76,41.563z"/>
		</g>
		<g>
			<path style="fill:#FFFFFF;" d="M57.523,23.422c-5.092,0-9.506,2.902-11.669,7.147c-3.443-1.466-7.325,0.969-7.468,4.74
				C35.25,36.414,33,39.394,33,42.906c0,4.229,3.257,7.691,7.397,8.029l24.924-24.924C63.083,24.226,60.45,23.422,57.523,23.422z"/>
		</g>
		<g>
			<circle style="fill:#00D6C1;" cx="60.5" cy="59.5" r="1.5"/>
		</g>
		<g>
			<circle style="fill:#00D6C1;" cx="55.5" cy="59.5" r="1.5"/>
		</g>
		<g>
			<circle style="fill:#00D6C1;" cx="50.5" cy="59.5" r="1.5"/>
		</g>
		<g>
			<circle style="fill:#00D6C1;" cx="82.5" cy="59.5" r="1.5"/>
		</g>
		<g>
			<circle style="fill:#00D6C1;" cx="77.5" cy="59.5" r="1.5"/>
		</g>
		<g>
			<circle style="fill:#00D6C1;" cx="72.5" cy="59.5" r="1.5"/>
		</g>
		<g>
			<rect x="23" y="80" style="fill:#4A8781;" width="20" height="2"/>
		</g>
		<g>
			<rect x="23" y="75" style="fill:#4A8781;" width="20" height="2"/>
		</g>
		<g>
			<rect x="23" y="70" style="fill:#4A8781;" width="20" height="2"/>
		</g>
		<g>
			<rect x="23" y="65" style="fill:#4A8781;" width="20" height="2"/>
		</g>
		<g>
			<rect x="45" y="80" style="fill:#4A8781;" width="20" height="2"/>
		</g>
		<g>
			<rect x="45" y="75" style="fill:#4A8781;" width="20" height="2"/>
		</g>
		<g>
			<rect x="45" y="70" style="fill:#4A8781;" width="20" height="2"/>
		</g>
		<g>
			<rect x="45" y="65" style="fill:#4A8781;" width="20" height="2"/>
		</g>
		<g>
			<rect x="67" y="80" style="fill:#4A8781;" width="20" height="2"/>
		</g>
		<g>
			<rect x="67" y="75" style="fill:#4A8781;" width="20" height="2"/>
		</g>
		<g>
			<rect x="67" y="70" style="fill:#4A8781;" width="20" height="2"/>
		</g>
		<g>
			<rect x="67" y="65" style="fill:#4A8781;" width="20" height="2"/>
		</g>
	</g>
</g>
<g id="R-Green">
	<g>
		<circle style="fill:#87E0C8;" cx="55" cy="55" r="55"/>
	</g>
	<g>
		<g>
			<path style="fill:#0A3631;" d="M65,85c0,1.104-0.896,2-2,2H47c-1.104,0-2-0.896-2-2V57c0-1.104,0.896-2,2-2h16
				c1.104,0,2,0.896,2,2V85z"/>
		</g>
		<g>
			<path style="fill:#0A3631;" d="M87,85c0,1.104-0.896,2-2,2H69c-1.104,0-2-0.896-2-2V57c0-1.104,0.896-2,2-2h16
				c1.104,0,2,0.896,2,2V85z"/>
		</g>
		<g>
			<path style="fill:#0A3631;" d="M43,85c0,1.104-0.896,2-2,2H25c-1.104,0-2-0.896-2-2V57c0-1.104,0.896-2,2-2h16
				c1.104,0,2,0.896,2,2V85z"/>
		</g>
		<g>
			<circle style="fill:#00D6C1;" cx="38.5" cy="59.5" r="1.5"/>
		</g>
		<g>
			<circle style="fill:#00D6C1;" cx="33.5" cy="59.5" r="1.5"/>
		</g>
		<g>
			<circle style="fill:#00D6C1;" cx="28.5" cy="59.5" r="1.5"/>
		</g>
		<g>
			<path style="fill:#D7FCF9;" d="M76,41.563c0-3.954-2.442-7.332-5.898-8.723c-2.738-6.697-7.162-9.418-12.579-9.418
				c-5.092,0-9.506,2.902-11.669,7.147c-3.443-1.466-7.325,0.969-7.468,4.74C35.25,36.414,33,39.394,33,42.906
				c0,4.453,3.609,8.062,8.062,8.062h26.875C67.937,50.969,76,49.474,76,41.563z"/>
		</g>
		<g>
			<path style="fill:#FFFFFF;" d="M57.523,23.422c-5.092,0-9.506,2.902-11.669,7.147c-3.443-1.466-7.325,0.969-7.468,4.74
				C35.25,36.414,33,39.394,33,42.906c0,4.229,3.257,7.691,7.397,8.029l24.924-24.924C63.083,24.226,60.45,23.422,57.523,23.422z"/>
		</g>
		<g>
			<circle style="fill:#00D6C1;" cx="60.5" cy="59.5" r="1.5"/>
		</g>
		<g>
			<circle style="fill:#00D6C1;" cx="55.5" cy="59.5" r="1.5"/>
		</g>
		<g>
			<circle style="fill:#00D6C1;" cx="50.5" cy="59.5" r="1.5"/>
		</g>
		<g>
			<circle style="fill:#00D6C1;" cx="82.5" cy="59.5" r="1.5"/>
		</g>
		<g>
			<circle style="fill:#00D6C1;" cx="77.5" cy="59.5" r="1.5"/>
		</g>
		<g>
			<circle style="fill:#00D6C1;" cx="72.5" cy="59.5" r="1.5"/>
		</g>
		<g>
			<rect x="23" y="80" style="fill:#4A8781;" width="20" height="2"/>
		</g>
		<g>
			<rect x="23" y="75" style="fill:#4A8781;" width="20" height="2"/>
		</g>
		<g>
			<rect x="23" y="70" style="fill:#4A8781;" width="20" height="2"/>
		</g>
		<g>
			<rect x="23" y="65" style="fill:#4A8781;" width="20" height="2"/>
		</g>
		<g>
			<rect x="45" y="80" style="fill:#4A8781;" width="20" height="2"/>
		</g>
		<g>
			<rect x="45" y="75" style="fill:#4A8781;" width="20" height="2"/>
		</g>
		<g>
			<rect x="45" y="70" style="fill:#4A8781;" width="20" height="2"/>
		</g>
		<g>
			<rect x="45" y="65" style="fill:#4A8781;" width="20" height="2"/>
		</g>
		<g>
			<rect x="67" y="80" style="fill:#4A8781;" width="20" height="2"/>
		</g>
		<g>
			<rect x="67" y="75" style="fill:#4A8781;" width="20" height="2"/>
		</g>
		<g>
			<rect x="67" y="70" style="fill:#4A8781;" width="20" height="2"/>
		</g>
		<g>
			<rect x="67" y="65" style="fill:#4A8781;" width="20" height="2"/>
		</g>
	</g>
</g>
<g id="Red" style="display:none;">
	<g style="display:inline;">
		<g>
			<path style="fill:#4A1410;" d="M65,85c0,1.104-0.896,2-2,2H47c-1.104,0-2-0.896-2-2V57c0-1.104,0.896-2,2-2h16
				c1.104,0,2,0.896,2,2V85z"/>
		</g>
		<g>
			<path style="fill:#4A1410;" d="M87,85c0,1.104-0.896,2-2,2H69c-1.104,0-2-0.896-2-2V57c0-1.104,0.896-2,2-2h16
				c1.104,0,2,0.896,2,2V85z"/>
		</g>
		<g>
			<path style="fill:#4A1410;" d="M43,85c0,1.104-0.896,2-2,2H25c-1.104,0-2-0.896-2-2V57c0-1.104,0.896-2,2-2h16
				c1.104,0,2,0.896,2,2V85z"/>
		</g>
		<g>
			<circle style="fill:#FF6C5E;" cx="38.5" cy="59.5" r="1.5"/>
		</g>
		<g>
			<circle style="fill:#FF6C5E;" cx="33.5" cy="59.5" r="1.5"/>
		</g>
		<g>
			<circle style="fill:#FF6C5E;" cx="28.5" cy="59.5" r="1.5"/>
		</g>
		<g>
			<path style="fill:#FFEFED;" d="M76,41.563c0-3.954-2.442-7.332-5.898-8.723c-2.738-6.697-7.162-9.418-12.579-9.418
				c-5.092,0-9.506,2.902-11.669,7.147c-3.443-1.466-7.325,0.969-7.468,4.74C35.25,36.414,33,39.394,33,42.906
				c0,4.453,3.609,8.062,8.062,8.062h26.875C67.938,50.969,76,49.474,76,41.563z"/>
		</g>
		<g>
			<path style="fill:#FFFFFF;" d="M57.523,23.422c-5.092,0-9.506,2.902-11.669,7.147c-3.443-1.466-7.325,0.969-7.468,4.74
				C35.25,36.414,33,39.394,33,42.906c0,4.229,3.257,7.691,7.397,8.029l24.924-24.924C63.083,24.226,60.45,23.422,57.523,23.422z"/>
		</g>
		<g>
			<circle style="fill:#FF6C5E;" cx="60.5" cy="59.5" r="1.5"/>
		</g>
		<g>
			<circle style="fill:#FF6C5E;" cx="55.5" cy="59.5" r="1.5"/>
		</g>
		<g>
			<circle style="fill:#FF6C5E;" cx="50.5" cy="59.5" r="1.5"/>
		</g>
		<g>
			<circle style="fill:#FF6C5E;" cx="82.5" cy="59.5" r="1.5"/>
		</g>
		<g>
			<circle style="fill:#FF6C5E;" cx="77.5" cy="59.5" r="1.5"/>
		</g>
		<g>
			<circle style="fill:#FF6C5E;" cx="72.5" cy="59.5" r="1.5"/>
		</g>
		<g>
			<rect x="23" y="80" style="fill:#9B5852;" width="20" height="2"/>
		</g>
		<g>
			<rect x="23" y="75" style="fill:#9B5852;" width="20" height="2"/>
		</g>
		<g>
			<rect x="23" y="70" style="fill:#9B5852;" width="20" height="2"/>
		</g>
		<g>
			<rect x="23" y="65" style="fill:#9B5852;" width="20" height="2"/>
		</g>
		<g>
			<rect x="45" y="80" style="fill:#9B5852;" width="20" height="2"/>
		</g>
		<g>
			<rect x="45" y="75" style="fill:#9B5852;" width="20" height="2"/>
		</g>
		<g>
			<rect x="45" y="70" style="fill:#9B5852;" width="20" height="2"/>
		</g>
		<g>
			<rect x="45" y="65" style="fill:#9B5852;" width="20" height="2"/>
		</g>
		<g>
			<rect x="67" y="80" style="fill:#9B5852;" width="20" height="2"/>
		</g>
		<g>
			<rect x="67" y="75" style="fill:#9B5852;" width="20" height="2"/>
		</g>
		<g>
			<rect x="67" y="70" style="fill:#9B5852;" width="20" height="2"/>
		</g>
		<g>
			<rect x="67" y="65" style="fill:#9B5852;" width="20" height="2"/>
		</g>
	</g>
</g>
<g id="R-Red" style="display:none;">
	<g style="display:inline;">
		<circle style="fill:#FABBAF;" cx="55" cy="55" r="55"/>
	</g>
	<g style="display:inline;">
		<g>
			<path style="fill:#4A1410;" d="M65,85c0,1.104-0.896,2-2,2H47c-1.104,0-2-0.896-2-2V57c0-1.104,0.896-2,2-2h16
				c1.104,0,2,0.896,2,2V85z"/>
		</g>
		<g>
			<path style="fill:#4A1410;" d="M87,85c0,1.104-0.896,2-2,2H69c-1.104,0-2-0.896-2-2V57c0-1.104,0.896-2,2-2h16
				c1.104,0,2,0.896,2,2V85z"/>
		</g>
		<g>
			<path style="fill:#4A1410;" d="M43,85c0,1.104-0.896,2-2,2H25c-1.104,0-2-0.896-2-2V57c0-1.104,0.896-2,2-2h16
				c1.104,0,2,0.896,2,2V85z"/>
		</g>
		<g>
			<circle style="fill:#FF6C5E;" cx="38.5" cy="59.5" r="1.5"/>
		</g>
		<g>
			<circle style="fill:#FF6C5E;" cx="33.5" cy="59.5" r="1.5"/>
		</g>
		<g>
			<circle style="fill:#FF6C5E;" cx="28.5" cy="59.5" r="1.5"/>
		</g>
		<g>
			<path style="fill:#FFEFED;" d="M76,41.563c0-3.954-2.442-7.332-5.898-8.723c-2.738-6.697-7.162-9.418-12.579-9.418
				c-5.092,0-9.506,2.902-11.669,7.147c-3.443-1.466-7.325,0.969-7.468,4.74C35.25,36.414,33,39.394,33,42.906
				c0,4.453,3.609,8.062,8.062,8.062h26.875C67.938,50.969,76,49.474,76,41.563z"/>
		</g>
		<g>
			<path style="fill:#FFFFFF;" d="M57.523,23.422c-5.092,0-9.506,2.902-11.669,7.147c-3.443-1.466-7.325,0.969-7.468,4.74
				C35.25,36.414,33,39.394,33,42.906c0,4.229,3.257,7.691,7.397,8.029l24.924-24.924C63.083,24.226,60.45,23.422,57.523,23.422z"/>
		</g>
		<g>
			<circle style="fill:#FF6C5E;" cx="60.5" cy="59.5" r="1.5"/>
		</g>
		<g>
			<circle style="fill:#FF6C5E;" cx="55.5" cy="59.5" r="1.5"/>
		</g>
		<g>
			<circle style="fill:#FF6C5E;" cx="50.5" cy="59.5" r="1.5"/>
		</g>
		<g>
			<circle style="fill:#FF6C5E;" cx="82.5" cy="59.5" r="1.5"/>
		</g>
		<g>
			<circle style="fill:#FF6C5E;" cx="77.5" cy="59.5" r="1.5"/>
		</g>
		<g>
			<circle style="fill:#FF6C5E;" cx="72.5" cy="59.5" r="1.5"/>
		</g>
		<g>
			<rect x="23" y="80" style="fill:#9B5852;" width="20" height="2"/>
		</g>
		<g>
			<rect x="23" y="75" style="fill:#9B5852;" width="20" height="2"/>
		</g>
		<g>
			<rect x="23" y="70" style="fill:#9B5852;" width="20" height="2"/>
		</g>
		<g>
			<rect x="23" y="65" style="fill:#9B5852;" width="20" height="2"/>
		</g>
		<g>
			<rect x="45" y="80" style="fill:#9B5852;" width="20" height="2"/>
		</g>
		<g>
			<rect x="45" y="75" style="fill:#9B5852;" width="20" height="2"/>
		</g>
		<g>
			<rect x="45" y="70" style="fill:#9B5852;" width="20" height="2"/>
		</g>
		<g>
			<rect x="45" y="65" style="fill:#9B5852;" width="20" height="2"/>
		</g>
		<g>
			<rect x="67" y="80" style="fill:#9B5852;" width="20" height="2"/>
		</g>
		<g>
			<rect x="67" y="75" style="fill:#9B5852;" width="20" height="2"/>
		</g>
		<g>
			<rect x="67" y="70" style="fill:#9B5852;" width="20" height="2"/>
		</g>
		<g>
			<rect x="67" y="65" style="fill:#9B5852;" width="20" height="2"/>
		</g>
	</g>
</g>
<g id="Yellow" style="display:none;">
	<g style="display:inline;">
		<g>
			<path style="fill:#3D320C;" d="M65,85c0,1.104-0.896,2-2,2H47c-1.104,0-2-0.896-2-2V57c0-1.104,0.896-2,2-2h16
				c1.104,0,2,0.896,2,2V85z"/>
		</g>
		<g>
			<path style="fill:#3D320C;" d="M87,85c0,1.104-0.896,2-2,2H69c-1.104,0-2-0.896-2-2V57c0-1.104,0.896-2,2-2h16
				c1.104,0,2,0.896,2,2V85z"/>
		</g>
		<g>
			<path style="fill:#3D320C;" d="M43,85c0,1.104-0.896,2-2,2H25c-1.104,0-2-0.896-2-2V57c0-1.104,0.896-2,2-2h16
				c1.104,0,2,0.896,2,2V85z"/>
		</g>
		<g>
			<circle style="fill:#FFAA00;" cx="38.5" cy="59.5" r="1.5"/>
		</g>
		<g>
			<circle style="fill:#FFAA00;" cx="33.5" cy="59.5" r="1.5"/>
		</g>
		<g>
			<circle style="fill:#FFAA00;" cx="28.5" cy="59.5" r="1.5"/>
		</g>
		<g>
			<path style="fill:#FFF5D9;" d="M76,41.563c0-3.954-2.442-7.332-5.898-8.723c-2.738-6.697-7.162-9.418-12.579-9.418
				c-5.092,0-9.506,2.902-11.669,7.147c-3.443-1.466-7.325,0.969-7.468,4.74C35.25,36.414,33,39.394,33,42.906
				c0,4.453,3.609,8.062,8.062,8.062h26.875C67.938,50.969,76,49.474,76,41.563z"/>
		</g>
		<g>
			<path style="fill:#FFFFFF;" d="M57.523,23.422c-5.092,0-9.506,2.902-11.669,7.147c-3.443-1.466-7.325,0.969-7.468,4.74
				C35.25,36.414,33,39.394,33,42.906c0,4.229,3.257,7.691,7.397,8.029l24.924-24.924C63.083,24.226,60.45,23.422,57.523,23.422z"/>
		</g>
		<g>
			<circle style="fill:#FFAA00;" cx="60.5" cy="59.5" r="1.5"/>
		</g>
		<g>
			<circle style="fill:#FFAA00;" cx="55.5" cy="59.5" r="1.5"/>
		</g>
		<g>
			<circle style="fill:#FFAA00;" cx="50.5" cy="59.5" r="1.5"/>
		</g>
		<g>
			<circle style="fill:#FFAA00;" cx="82.5" cy="59.5" r="1.5"/>
		</g>
		<g>
			<circle style="fill:#FFAA00;" cx="77.5" cy="59.5" r="1.5"/>
		</g>
		<g>
			<circle style="fill:#FFAA00;" cx="72.5" cy="59.5" r="1.5"/>
		</g>
		<g>
			<rect x="23" y="80" style="fill:#897945;" width="20" height="2"/>
		</g>
		<g>
			<rect x="23" y="75" style="fill:#897945;" width="20" height="2"/>
		</g>
		<g>
			<rect x="23" y="70" style="fill:#897945;" width="20" height="2"/>
		</g>
		<g>
			<rect x="23" y="65" style="fill:#897945;" width="20" height="2"/>
		</g>
		<g>
			<rect x="45" y="80" style="fill:#897945;" width="20" height="2"/>
		</g>
		<g>
			<rect x="45" y="75" style="fill:#897945;" width="20" height="2"/>
		</g>
		<g>
			<rect x="45" y="70" style="fill:#897945;" width="20" height="2"/>
		</g>
		<g>
			<rect x="45" y="65" style="fill:#897945;" width="20" height="2"/>
		</g>
		<g>
			<rect x="67" y="80" style="fill:#897945;" width="20" height="2"/>
		</g>
		<g>
			<rect x="67" y="75" style="fill:#897945;" width="20" height="2"/>
		</g>
		<g>
			<rect x="67" y="70" style="fill:#897945;" width="20" height="2"/>
		</g>
		<g>
			<rect x="67" y="65" style="fill:#897945;" width="20" height="2"/>
		</g>
	</g>
</g>
<g id="R-Yellow" style="display:none;">
	<g style="display:inline;">
		<circle style="fill:#FFD75E;" cx="55" cy="55" r="55"/>
	</g>
	<g style="display:inline;">
		<g>
			<path style="fill:#3D320C;" d="M65,85c0,1.104-0.896,2-2,2H47c-1.104,0-2-0.896-2-2V57c0-1.104,0.896-2,2-2h16
				c1.104,0,2,0.896,2,2V85z"/>
		</g>
		<g>
			<path style="fill:#3D320C;" d="M87,85c0,1.104-0.896,2-2,2H69c-1.104,0-2-0.896-2-2V57c0-1.104,0.896-2,2-2h16
				c1.104,0,2,0.896,2,2V85z"/>
		</g>
		<g>
			<path style="fill:#3D320C;" d="M43,85c0,1.104-0.896,2-2,2H25c-1.104,0-2-0.896-2-2V57c0-1.104,0.896-2,2-2h16
				c1.104,0,2,0.896,2,2V85z"/>
		</g>
		<g>
			<circle style="fill:#FFAA00;" cx="38.5" cy="59.5" r="1.5"/>
		</g>
		<g>
			<circle style="fill:#FFAA00;" cx="33.5" cy="59.5" r="1.5"/>
		</g>
		<g>
			<circle style="fill:#FFAA00;" cx="28.5" cy="59.5" r="1.5"/>
		</g>
		<g>
			<path style="fill:#FFF5D9;" d="M76,41.563c0-3.954-2.442-7.332-5.898-8.723c-2.738-6.697-7.162-9.418-12.579-9.418
				c-5.092,0-9.506,2.902-11.669,7.147c-3.443-1.466-7.325,0.969-7.468,4.74C35.25,36.414,33,39.394,33,42.906
				c0,4.453,3.609,8.062,8.062,8.062h26.875C67.938,50.969,76,49.474,76,41.563z"/>
		</g>
		<g>
			<path style="fill:#FFFFFF;" d="M57.523,23.422c-5.092,0-9.506,2.902-11.669,7.147c-3.443-1.466-7.325,0.969-7.468,4.74
				C35.25,36.414,33,39.394,33,42.906c0,4.229,3.257,7.691,7.397,8.029l24.924-24.924C63.083,24.226,60.45,23.422,57.523,23.422z"/>
		</g>
		<g>
			<circle style="fill:#FFAA00;" cx="60.5" cy="59.5" r="1.5"/>
		</g>
		<g>
			<circle style="fill:#FFAA00;" cx="55.5" cy="59.5" r="1.5"/>
		</g>
		<g>
			<circle style="fill:#FFAA00;" cx="50.5" cy="59.5" r="1.5"/>
		</g>
		<g>
			<circle style="fill:#FFAA00;" cx="82.5" cy="59.5" r="1.5"/>
		</g>
		<g>
			<circle style="fill:#FFAA00;" cx="77.5" cy="59.5" r="1.5"/>
		</g>
		<g>
			<circle style="fill:#FFAA00;" cx="72.5" cy="59.5" r="1.5"/>
		</g>
		<g>
			<rect x="23" y="80" style="fill:#897945;" width="20" height="2"/>
		</g>
		<g>
			<rect x="23" y="75" style="fill:#897945;" width="20" height="2"/>
		</g>
		<g>
			<rect x="23" y="70" style="fill:#897945;" width="20" height="2"/>
		</g>
		<g>
			<rect x="23" y="65" style="fill:#897945;" width="20" height="2"/>
		</g>
		<g>
			<rect x="45" y="80" style="fill:#897945;" width="20" height="2"/>
		</g>
		<g>
			<rect x="45" y="75" style="fill:#897945;" width="20" height="2"/>
		</g>
		<g>
			<rect x="45" y="70" style="fill:#897945;" width="20" height="2"/>
		</g>
		<g>
			<rect x="45" y="65" style="fill:#897945;" width="20" height="2"/>
		</g>
		<g>
			<rect x="67" y="80" style="fill:#897945;" width="20" height="2"/>
		</g>
		<g>
			<rect x="67" y="75" style="fill:#897945;" width="20" height="2"/>
		</g>
		<g>
			<rect x="67" y="70" style="fill:#897945;" width="20" height="2"/>
		</g>
		<g>
			<rect x="67" y="65" style="fill:#897945;" width="20" height="2"/>
		</g>
	</g>
</g>
</svg>
