<?xml version="1.0" encoding="UTF-8" standalone="no"?>
<!-- Created with Inkscape (http://www.inkscape.org/) -->

<svg
   xmlns:dc="http://purl.org/dc/elements/1.1/"
   xmlns:cc="http://creativecommons.org/ns#"
   xmlns:rdf="http://www.w3.org/1999/02/22-rdf-syntax-ns#"
   xmlns:svg="http://www.w3.org/2000/svg"
   xmlns="http://www.w3.org/2000/svg"
   xmlns:sodipodi="http://sodipodi.sourceforge.net/DTD/sodipodi-0.dtd"
   xmlns:inkscape="http://www.inkscape.org/namespaces/inkscape"
   width="450"
   height="106"
   viewBox="0 0 119.0625 28.045833"
   version="1.1"
   id="svg8"
   inkscape:version="0.92.3 (2405546, 2018-03-11)"
   sodipodi:docname="pystol_full_big.svg"
   inkscape:export-filename="C:\Users\strix\Dropbox\logo-for-pystol\pystol.png"
   inkscape:export-xdpi="100.095"
   inkscape:export-ydpi="100.095">
  <defs
     id="defs2" />
  <sodipodi:namedview
     id="base"
     pagecolor="#ffffff"
     bordercolor="#666666"
     borderopacity="1.0"
     inkscape:pageopacity="0.0"
     inkscape:pageshadow="2"
     inkscape:zoom="3.9999998"
     inkscape:cx="251.73157"
     inkscape:cy="-11.706318"
     inkscape:document-units="mm"
     inkscape:current-layer="layer1"
     showgrid="false"
     inkscape:snap-bbox="true"
     inkscape:bbox-paths="true"
     inkscape:bbox-nodes="true"
     inkscape:snap-bbox-edge-midpoints="true"
     inkscape:snap-bbox-midpoints="true"
     inkscape:snap-intersection-paths="true"
     inkscape:window-width="3840"
     inkscape:window-height="1537"
     inkscape:window-x="-8"
     inkscape:window-y="-8"
     inkscape:window-maximized="1"
     inkscape:snap-global="false"
     units="px" />
  <metadata
     id="metadata5">
    <rdf:RDF>
      <cc:Work
         rdf:about="">
        <dc:format>image/svg+xml</dc:format>
        <dc:type
           rdf:resource="http://purl.org/dc/dcmitype/StillImage" />
        <dc:title></dc:title>
      </cc:Work>
    </rdf:RDF>
  </metadata>
  <g
     inkscape:label="Capa 1"
     inkscape:groupmode="layer"
     id="layer1"
     transform="translate(0,-268.95422)">
    <g
       id="g899">
      <flowRoot
         transform="matrix(0.87072268,0,0,0.87072268,0.04723551,-680.45548)"
         style="font-style:normal;font-weight:normal;font-size:40px;line-height:1.25;font-family:sans-serif;letter-spacing:0px;word-spacing:0px;fill:#000000;fill-opacity:1;stroke:none"
         id="flowRoot1527"
         xml:space="preserve"><flowRegion
           id="flowRegion1529"><rect
             y="2375.5129"
             x="1066.317"
             height="1187.9395"
             width="2169.4036"
             id="rect1531" /></flowRegion><flowPara
           id="flowPara1533" /></flowRoot>      <path
         inkscape:connector-curvature="0"
         id="path1865-0-4-4-3-5"
         d="M 5.3677969,269.09244 2.3151085,274.3799 H 1.7813488 l -1.29919133,-1.25931 0.61956193,1.70835 -0.61956193,1.70845 1.29893043,-1.2593 h 0.5341036 l 3.0526054,5.28739 h 6.6239871 2.964606 l -6.6239869,11.4732 -1.8925797,3.27796 -0.9462515,1.63894 h 1.8924997 1.89266 9.4627354 l 4.731407,-8.19505 h 9.462802 l 5.677735,-9.83403 -5.677735,-9.83406 h -8.936238 -2.419143 -9.588511 z m 0.6146606,2.13064 h 1.2292227 l 0.6146458,1.06458 -0.6146458,1.06458 H 5.9824575 l -0.6146606,-1.06458 z m 6.7731365,1.14735 h 1.419448 1.41938 4.783576 6.377861 4.287234 l 3.785079,6.55607 -3.785079,6.55604 h -6.549524 -1.020695 -1.892499 l -4.731488,8.19505 h -5.677576 l 6.623907,-11.47294 0.946332,-1.63917 h 7.570153 0.946331 0.946248 l 0.946332,-1.63898 -0.946332,-1.63901 h -0.946248 -0.502175 -6.377861 -4.783576 -1.41938 -1.419448 l -1.41938,-2.45855 z m -6.7731365,3.93525 h 1.2292227 l 0.6146458,1.06455 -0.6146458,1.06448 H 5.9824575 l -0.6146606,-1.06448 z"
         style="opacity:1;vector-effect:none;fill:#c25d02;fill-opacity:1;stroke:none;stroke-width:5.021029;stroke-linecap:round;stroke-linejoin:miter;stroke-miterlimit:4;stroke-dasharray:none;stroke-dashoffset:0;stroke-opacity:1" />
      <path
         d="m 37.044897,296.60706 2.102672,-3.44375 -2.400689,-8.80805 h 3.096061 l 1.440413,5.28152 3.195399,-5.28152 h 3.029834 l -7.433855,12.2518 z"
         style="font-style:italic;font-variant:normal;font-weight:bold;font-stretch:normal;font-size:medium;line-height:1.25;font-family:'The Bold Font';-inkscape-font-specification:'The Bold Font Bold Italic';letter-spacing:0px;word-spacing:0px;fill:#ffffff;fill-opacity:1;stroke:none;stroke-width:0.41391176"
         id="path838"
         inkscape:connector-curvature="0" />
      <path
         d="m 48.673858,296.83884 q -0.579476,0 -1.125841,-0.16557 -0.529806,-0.149 -0.976831,-0.48013 -0.778154,-0.57948 -1.092727,-1.49008 -0.314573,-0.92716 -0.09934,-2.01989 h 2.798043 q -0.09934,0.49669 0.06623,0.77815 0.165564,0.2649 0.314574,0.36424 0.248346,0.19869 0.596032,0.21524 0.347686,0.0166 0.711928,-0.13246 0.248347,-0.0993 0.413913,-0.24835 0.165564,-0.149 0.264902,-0.28145 0.115896,-0.14901 0.149009,-0.28146 0.04968,-0.13246 0.06623,-0.21524 0.01655,-0.0828 0.01655,-0.21523 0.01655,-0.13245 -0.03311,-0.28145 -0.03311,-0.14902 -0.149008,-0.28147 -0.115895,-0.149 -0.314573,-0.26491 -0.165565,-0.0828 -0.364243,-0.149 -0.198677,-0.0663 -0.413912,-0.14901 -0.380798,-0.13245 -0.79471,-0.29802 -0.413912,-0.16557 -0.811267,-0.44702 -0.496694,-0.36424 -0.79471,-0.9106 -0.281461,-0.54637 -0.33113,-1.17552 -0.04967,-0.62914 0.132451,-1.2914 0.198679,-0.67882 0.645703,-1.29141 0.397356,-0.56292 0.927162,-0.97682 0.529808,-0.41392 1.125841,-0.64571 0.596033,-0.24835 1.225178,-0.29801 0.645703,-0.0497 1.258292,0.11589 0.61259,0.14901 1.059614,0.48014 0.447025,0.31457 0.728486,0.77816 0.281459,0.44702 0.364242,1.00993 0.08278,0.56293 -0.03311,1.17552 h -2.798044 q 0.06623,-0.3808 -0.149008,-0.52981 -0.198677,-0.14901 -0.364242,-0.19867 -0.03311,0 -0.165565,-0.0166 -0.115895,-0.0331 -0.28146,0 -0.149009,0.0166 -0.347686,0.1159 -0.182121,0.0828 -0.314573,0.28146 -0.182121,0.2649 -0.165564,0.56293 0.03311,0.28145 0.248346,0.44702 0.198679,0.13244 0.463581,0.24835 0.264904,0.0994 0.546365,0.19867 0.264902,0.0828 0.529806,0.18212 0.281461,0.0993 0.546364,0.23179 0.993388,0.49669 1.423857,1.45697 0.430468,0.96028 0.198677,2.13578 -0.23179,1.15896 -1.043057,2.11923 -0.811267,0.96028 -2.003334,1.45697 -0.480137,0.19868 -0.943718,0.28146 -0.463582,0.0994 -0.910606,0.0994 z"
         style="font-style:italic;font-variant:normal;font-weight:bold;font-stretch:normal;font-size:medium;line-height:1.25;font-family:'The Bold Font';-inkscape-font-specification:'The Bold Font Bold Italic';letter-spacing:0px;word-spacing:0px;fill:#ffffff;fill-opacity:1;stroke:none;stroke-width:0.41391176"
         id="path840"
         inkscape:connector-curvature="0" />
      <path
         d="m 63.410929,284.40493 -0.562919,2.81461 h -2.334463 l -1.870881,9.38752 h -2.798044 l 1.870881,-9.38752 h -2.317906 l 0.56292,-2.81461 z"
         style="font-style:italic;font-variant:normal;font-weight:bold;font-stretch:normal;font-size:medium;line-height:1.25;font-family:'The Bold Font';-inkscape-font-specification:'The Bold Font Bold Italic';letter-spacing:0px;word-spacing:0px;fill:#ffffff;fill-opacity:1;stroke:none;stroke-width:0.41391176"
         id="path842"
         inkscape:connector-curvature="0" />
      <path
         d="m 69.837944,284.43804 q 1.258292,0 2.268237,0.48014 1.009945,0.48015 1.672204,1.30796 0.678815,0.81128 0.927161,1.92055 0.264904,1.10928 0.01656,2.36758 -0.264903,1.2583 -0.960275,2.36757 -0.695372,1.10929 -1.68876,1.93711 -0.993389,0.81127 -2.202011,1.29141 -1.208622,0.48013 -2.466914,0.48013 -1.258292,0 -2.268236,-0.48013 -1.009946,-0.48014 -1.672205,-1.29141 -0.645703,-0.82782 -0.910605,-1.93711 -0.264904,-1.10927 0,-2.36757 0.248347,-1.2583 0.943718,-2.36758 0.711929,-1.10927 1.68876,-1.92055 0.976833,-0.82781 2.185455,-1.30796 1.208622,-0.48014 2.466914,-0.48014 z m -1.870881,9.35441 q 0.678815,0 1.324518,-0.24835 0.645702,-0.2649 1.175509,-0.71192 0.546364,-0.44702 0.910606,-1.04306 0.380799,-0.59603 0.529808,-1.27485 0.132451,-0.67882 -0.01655,-1.27485 -0.132452,-0.59603 -0.496694,-1.04306 -0.347686,-0.44702 -0.89405,-0.69537 -0.546363,-0.2649 -1.225179,-0.2649 -0.678815,0 -1.324518,0.2649 -0.645702,0.24835 -1.192065,0.69537 -0.529808,0.44703 -0.910606,1.04306 -0.364242,0.59603 -0.496694,1.27485 -0.149009,0.67882 -0.01655,1.27485 0.149008,0.59604 0.496693,1.04306 0.364244,0.44702 0.910607,0.71192 0.546363,0.24835 1.225178,0.24835 z"
         style="font-style:italic;font-variant:normal;font-weight:bold;font-stretch:normal;font-size:medium;line-height:1.25;font-family:'The Bold Font';-inkscape-font-specification:'The Bold Font Bold Italic';letter-spacing:0px;word-spacing:0px;fill:#ffffff;fill-opacity:1;stroke:none;stroke-width:0.41391176"
         id="path844"
         inkscape:connector-curvature="0" />
      <path
         d="M 81.549576,296.60706 H 74.314398 L 76.7482,284.43804 h 2.798042 l -1.870881,9.37097 h 4.437135 z"
         style="font-style:italic;font-variant:normal;font-weight:bold;font-stretch:normal;font-size:medium;line-height:1.25;font-family:'The Bold Font';-inkscape-font-specification:'The Bold Font Bold Italic';letter-spacing:0px;word-spacing:0px;fill:#ffffff;fill-opacity:1;stroke:none;stroke-width:0.41391176"
         id="path846"
         inkscape:connector-curvature="0" />
      <path
         d="m 85.471133,295.16664 q -0.115895,0.59603 -0.629146,1.0265 -0.496694,0.41392 -1.092727,0.41392 -0.596033,0 -0.943718,-0.41392 -0.33113,-0.43047 -0.215234,-1.0265 0.132451,-0.59603 0.629146,-1.00995 0.51325,-0.43047 1.109282,-0.43047 0.596034,0 0.927163,0.43047 0.347686,0.41392 0.215234,1.00995 z"
         style="font-style:italic;font-variant:normal;font-weight:bold;font-stretch:normal;font-size:medium;line-height:1.25;font-family:'The Bold Font';-inkscape-font-specification:'The Bold Font Bold Italic';letter-spacing:0px;word-spacing:0px;fill:#ffffff;fill-opacity:1;stroke:none;stroke-width:0.41391176"
         id="path848"
         inkscape:connector-curvature="0" />
      <path
         d="m 93.09693,284.43804 q 1.258291,0 2.268236,0.48014 1.009946,0.48015 1.672203,1.30796 0.678816,0.81128 0.927163,1.92055 0.264904,1.10928 0.01655,2.36758 -0.264904,1.2583 -0.960276,2.36757 -0.695371,1.10929 -1.68876,1.93711 -0.993388,0.81127 -2.202011,1.29141 -1.208622,0.48013 -2.466915,0.48013 -1.258291,0 -2.268236,-0.48013 -1.009944,-0.48014 -1.672203,-1.29141 -0.645703,-0.82782 -0.910607,-1.93711 -0.264902,-1.10927 0,-2.36757 0.248348,-1.2583 0.94372,-2.36758 0.711928,-1.10927 1.68876,-1.92055 0.976831,-0.82781 2.185454,-1.30796 1.208623,-0.48014 2.466914,-0.48014 z m -1.870881,9.35441 q 0.678815,0 1.324518,-0.24835 0.645702,-0.2649 1.175509,-0.71192 0.546363,-0.44702 0.910606,-1.04306 0.380798,-0.59603 0.529806,-1.27485 0.132453,-0.67882 -0.01655,-1.27485 -0.132451,-0.59603 -0.496693,-1.04306 -0.347687,-0.44702 -0.89405,-0.69537 -0.546364,-0.2649 -1.225179,-0.2649 -0.678815,0 -1.324518,0.2649 -0.645702,0.24835 -1.192065,0.69537 -0.529808,0.44703 -0.910607,1.04306 -0.364242,0.59603 -0.496694,1.27485 -0.149008,0.67882 -0.01655,1.27485 0.149009,0.59604 0.496694,1.04306 0.364242,0.44702 0.910606,0.71192 0.546363,0.24835 1.225179,0.24835 z"
         style="font-style:italic;font-variant:normal;font-weight:bold;font-stretch:normal;font-size:medium;line-height:1.25;font-family:'The Bold Font';-inkscape-font-specification:'The Bold Font Bold Italic';letter-spacing:0px;word-spacing:0px;fill:#ffffff;fill-opacity:1;stroke:none;stroke-width:0.41391176"
         id="path850"
         inkscape:connector-curvature="0" />
      <path
         d="m 101.87805,293.46132 q -0.21523,0.0331 -0.44703,0.0497 -0.21523,0.0166 -0.44702,0.0331 l -0.61259,3.06295 h -2.798024 l 2.417228,-12.11934 h 2.798046 q 1.04305,0.0166 1.87088,0.38079 0.84438,0.36426 1.4073,0.97684 0.57947,0.61259 0.79471,1.42385 0.23179,0.81128 0.0497,1.73843 -0.19868,0.97684 -0.77815,1.82122 -0.57948,0.82782 -1.45697,1.44041 l 1.82121,4.3378 h -3.29474 z m -0.33113,-2.73182 q 0.44703,-0.0166 0.87749,-0.149 0.44703,-0.14901 0.79471,-0.38081 0.34769,-0.23178 0.57948,-0.5298 0.24835,-0.31458 0.31457,-0.66226 0.0662,-0.34769 -0.0497,-0.6457 -0.1159,-0.29801 -0.3808,-0.52981 -0.24835,-0.23179 -0.62914,-0.36424 -0.3808,-0.14901 -0.82783,-0.16556 z"
         style="font-style:italic;font-variant:normal;font-weight:bold;font-stretch:normal;font-size:medium;line-height:1.25;font-family:'The Bold Font';-inkscape-font-specification:'The Bold Font Bold Italic';letter-spacing:0px;word-spacing:0px;fill:#ffffff;fill-opacity:1;stroke:none;stroke-width:0.41391176"
         id="path852"
         inkscape:connector-curvature="0" />
      <path
         d="m 118.43981,289.80235 -1.35763,6.80471 h -2.8146 l 0.0662,-0.29803 q -0.4967,0.16557 -1.00995,0.24835 -0.49669,0.0663 -0.97683,0.0663 -1.17551,0 -2.21857,-0.44702 -1.0265,-0.44703 -1.75498,-1.34108 -0.71193,-0.89404 -0.92716,-2.00333 -0.21524,-1.12584 0.0165,-2.30135 0.24835,-1.17551 0.91061,-2.30135 0.66225,-1.12584 1.73843,-2.01989 1.05961,-0.89404 2.26823,-1.34108 1.22518,-0.44702 2.40069,-0.44702 1.17551,0 2.20201,0.44702 1.04306,0.44704 1.77154,1.34108 l -2.38413,1.98678 q -0.39735,-0.48014 -0.96027,-0.71193 -0.56292,-0.24835 -1.19207,-0.24835 -0.62915,0 -1.2914,0.24835 -0.66226,0.23179 -1.22518,0.71193 -0.57948,0.48014 -0.96028,1.09273 -0.36424,0.61259 -0.49669,1.24173 -0.1159,0.62914 0,1.24174 0.13245,0.61259 0.51325,1.09272 0.34768,0.43047 0.82782,0.67882 0.4967,0.23179 1.05962,0.28145 0.56292,0.0331 1.15895,-0.11589 0.59603,-0.14901 1.1424,-0.49669 l 0.11589,-0.61259 h -2.4338 l 0.56292,-2.79804 z"
         style="font-style:italic;font-variant:normal;font-weight:bold;font-stretch:normal;font-size:medium;line-height:1.25;font-family:'The Bold Font';-inkscape-font-specification:'The Bold Font Bold Italic';letter-spacing:0px;word-spacing:0px;fill:#ffffff;fill-opacity:1;stroke:none;stroke-width:0.41391176"
         id="path854"
         inkscape:connector-curvature="0" />
    </g>
  </g>
</svg>
