<?xml version="1.0" encoding="UTF-8" standalone="no"?>
<!-- Created with Inkscape (http://www.inkscape.org/) -->

<svg
   xmlns:dc="http://purl.org/dc/elements/1.1/"
   xmlns:cc="http://creativecommons.org/ns#"
   xmlns:rdf="http://www.w3.org/1999/02/22-rdf-syntax-ns#"
   xmlns:svg="http://www.w3.org/2000/svg"
   xmlns="http://www.w3.org/2000/svg"
   xmlns:sodipodi="http://sodipodi.sourceforge.net/DTD/sodipodi-0.dtd"
   xmlns:inkscape="http://www.inkscape.org/namespaces/inkscape"
   width="139"
   height="32"
   viewBox="0 0 36.777083 8.4666666"
   version="1.1"
   id="svg8"
   inkscape:version="0.92.3 (2405546, 2018-03-11)"
   sodipodi:docname="pystol_full - Copy.svg"
   inkscape:export-filename="C:\Users\strix\Dropbox\logo-for-pystol\pystol.png"
   inkscape:export-xdpi="100.095"
   inkscape:export-ydpi="100.095">
  <defs
     id="defs2" />
  <sodipodi:namedview
     id="base"
     pagecolor="#ffffff"
     bordercolor="#666666"
     borderopacity="1.0"
     inkscape:pageopacity="0.0"
     inkscape:pageshadow="2"
     inkscape:zoom="3.9999998"
     inkscape:cx="167.74956"
     inkscape:cy="82.458446"
     inkscape:document-units="mm"
     inkscape:current-layer="layer1"
     showgrid="false"
     inkscape:snap-bbox="true"
     inkscape:bbox-paths="true"
     inkscape:bbox-nodes="true"
     inkscape:snap-bbox-edge-midpoints="true"
     inkscape:snap-bbox-midpoints="true"
     inkscape:snap-intersection-paths="true"
     inkscape:window-width="3840"
     inkscape:window-height="1537"
     inkscape:window-x="-8"
     inkscape:window-y="-8"
     inkscape:window-maximized="1"
     inkscape:snap-global="false"
     units="px" />
  <metadata
     id="metadata5">
    <rdf:RDF>
      <cc:Work
         rdf:about="">
        <dc:format>image/svg+xml</dc:format>
        <dc:type
           rdf:resource="http://purl.org/dc/dcmitype/StillImage" />
        <dc:title></dc:title>
      </cc:Work>
    </rdf:RDF>
  </metadata>
  <g
     inkscape:label="Capa 1"
     inkscape:groupmode="layer"
     id="layer1"
     transform="translate(0,-288.53338)">
    <flowRoot
       xml:space="preserve"
       id="flowRoot1527"
       style="font-style:normal;font-weight:normal;font-size:10.58333302px;line-height:1.25;font-family:sans-serif;letter-spacing:0px;word-spacing:0px;fill:#000000;fill-opacity:1;stroke:none;stroke-width:0.26458332"><flowRegion
         id="flowRegion1529"
         style="stroke-width:0.26458332"><rect
           id="rect1531"
           width="573.98804"
           height="314.30899"
           x="282.1297"
           y="628.52112"
           style="stroke-width:0.07000434" /></flowRegion><flowPara
         id="flowPara1533"
         style="stroke-width:0.26458332" /></flowRoot>    <path
       style="opacity:1;vector-effect:none;fill:#c25d02;fill-opacity:1;stroke:none;stroke-width:1.52572179;stroke-linecap:round;stroke-linejoin:miter;stroke-miterlimit:4;stroke-dasharray:none;stroke-dashoffset:0;stroke-opacity:1"
       d="m 1.5162421,288.53567 -0.9276093,1.60668 H 0.42644119 l -0.3947805,-0.38266 0.18826398,0.51911 -0.18826398,0.51914 0.39470121,-0.38266 h 0.16229613 l 0.92758407,1.60666 h 2.012807 0.9008441 l -2.012807,3.48632 -0.5750913,0.99606 -0.287534,0.49802 h 0.575067 0.5751157 2.875407 l 1.4377156,-2.4902 h 2.8754269 l 1.7252729,-2.98823 -1.7252729,-2.98824 H 7.1777711 6.4426749 3.5290491 Z m 0.1867747,0.64743 h 0.3735194 l 0.1867702,0.32349 -0.1867702,0.32349 H 1.7030168 l -0.1867747,-0.32349 z m 2.0581284,0.34864 h 0.4313225 0.4313018 1.4535679 1.9380173 1.3027461 l 1.1501582,1.99217 -1.1501582,1.99216 h -1.99018 -0.3101546 -0.575067 l -1.4377399,2.4902 H 3.2797349 l 2.0127826,-3.48624 0.2875583,-0.49809 h 2.3003148 0.2875583 0.287533 l 0.2875583,-0.49803 -0.2875583,-0.49804 H 8.1679489 8.0153547 6.0773374 4.6237695 4.1924677 3.7611452 L 3.3298433,290.2788 Z m -2.0581284,1.19579 h 0.3735194 l 0.1867702,0.32348 -0.1867702,0.32346 H 1.7030168 l -0.1867747,-0.32346 z"
       id="path1865-0-4-4-3-5"
       inkscape:connector-curvature="0" />
    <g
       aria-label="YSTOL.ORG"
       style="font-style:normal;font-weight:normal;font-size:14.59192181px;line-height:1.25;font-family:sans-serif;letter-spacing:0px;word-spacing:0px;fill:#000000;fill-opacity:1;stroke:none;stroke-width:0.36479801"
       id="text1454"
       transform="matrix(0.34477672,0,0,0.34477672,6.7239215,194.10588)">
      <path
         d="m 11.881121,298.1366 1.853174,-3.03512 -2.115829,-7.76291 h 2.72869 l 1.269497,4.65483 2.816241,-4.65483 h 2.670321 l -6.551772,10.79803 z"
         style="font-style:italic;font-variant:normal;font-weight:bold;font-stretch:normal;font-family:'The Bold Font';-inkscape-font-specification:'The Bold Font Bold Italic';fill:#000000;stroke-width:0.36479801"
         id="path838"
         inkscape:connector-curvature="0" />
      <path
         d="m 23.52935,298.34088 q -0.510717,0 -0.992251,-0.14592 -0.466941,-0.13132 -0.860923,-0.42316 -0.68582,-0.51072 -0.963067,-1.31327 -0.277246,-0.81715 -0.08755,-1.78022 h 2.466034 q -0.08755,0.43776 0.05837,0.68582 0.145919,0.23347 0.277247,0.32102 0.218878,0.17511 0.525309,0.1897 0.30643,0.0146 0.627452,-0.11674 0.218879,-0.0875 0.364799,-0.21888 0.145919,-0.13132 0.23347,-0.24806 0.102144,-0.13133 0.131328,-0.24806 0.04378,-0.11674 0.05837,-0.1897 0.01459,-0.073 0.01459,-0.18969 0.01459,-0.11674 -0.02918,-0.24806 -0.02918,-0.13133 -0.131327,-0.24807 -0.102143,-0.13132 -0.277246,-0.23347 -0.14592,-0.073 -0.321023,-0.13132 -0.175103,-0.0584 -0.364798,-0.13133 -0.335614,-0.11674 -0.700412,-0.26266 -0.364798,-0.14592 -0.715004,-0.39398 -0.437758,-0.32102 -0.700412,-0.80255 -0.248063,-0.48154 -0.291839,-1.03603 -0.04378,-0.55449 0.116735,-1.13817 0.175104,-0.59827 0.569085,-1.13817 0.350207,-0.49613 0.817148,-0.86092 0.466942,-0.3648 0.992251,-0.56909 0.525309,-0.21888 1.079802,-0.26265 0.569085,-0.0438 1.108986,0.10214 0.539901,0.13133 0.933883,0.42317 0.393982,0.27724 0.642045,0.68582 0.248062,0.39398 0.321022,0.8901 0.07296,0.49613 -0.02918,1.03603 h -2.466035 q 0.05837,-0.33561 -0.131327,-0.46694 -0.175103,-0.13133 -0.321022,-0.1751 -0.02918,0 -0.14592,-0.0146 -0.102143,-0.0292 -0.248062,0 -0.131328,0.0146 -0.306431,0.10215 -0.160511,0.073 -0.277246,0.24806 -0.160511,0.23347 -0.145919,0.49613 0.02918,0.24806 0.218878,0.39398 0.175104,0.11673 0.408574,0.21888 0.233471,0.0876 0.481534,0.1751 0.23347,0.073 0.466941,0.16051 0.248063,0.0875 0.481534,0.20429 0.875515,0.43775 1.254905,1.28409 0.37939,0.84633 0.175103,1.88235 -0.204287,1.02144 -0.919291,1.86777 -0.715004,0.84633 -1.765623,1.28409 -0.423165,0.1751 -0.831739,0.24806 -0.408574,0.0876 -0.802556,0.0876 z"
         style="font-style:italic;font-variant:normal;font-weight:bold;font-stretch:normal;font-family:'The Bold Font';-inkscape-font-specification:'The Bold Font Bold Italic';fill:#000000;stroke-width:0.36479801"
         id="path840"
         inkscape:connector-curvature="0" />
      <path
         d="m 36.517757,287.38235 -0.496125,2.48063 h -2.057461 l -1.648887,8.27362 h -2.466035 l 1.648887,-8.27362 h -2.042869 l 0.496125,-2.48063 z"
         style="font-style:italic;font-variant:normal;font-weight:bold;font-stretch:normal;font-family:'The Bold Font';-inkscape-font-specification:'The Bold Font Bold Italic';fill:#000000;stroke-width:0.36479801"
         id="path842"
         inkscape:connector-curvature="0" />
      <path
         d="m 42.182158,287.41153 q 1.108986,0 1.999094,0.42317 0.890107,0.42317 1.473784,1.15276 0.598269,0.71501 0.817147,1.69266 0.233471,0.97766 0.01459,2.08665 -0.23347,1.10899 -0.846331,2.08664 -0.612861,0.97766 -1.488376,1.70726 -0.875516,0.715 -1.940726,1.13817 -1.06521,0.42316 -2.174196,0.42316 -1.108986,0 -1.999093,-0.42316 -0.890108,-0.42317 -1.473785,-1.13817 -0.569085,-0.7296 -0.802555,-1.70726 -0.233471,-0.97765 0,-2.08664 0.218879,-1.10899 0.831739,-2.08665 0.627453,-0.97765 1.488376,-1.69266 0.860924,-0.72959 1.926134,-1.15276 1.06521,-0.42317 2.174196,-0.42317 z m -1.648887,8.24444 q 0.598269,0 1.167354,-0.21888 0.569085,-0.23347 1.036026,-0.62745 0.481534,-0.39398 0.802556,-0.91929 0.335614,-0.52531 0.466942,-1.12358 0.116735,-0.59827 -0.01459,-1.12358 -0.116736,-0.52531 -0.437758,-0.91929 -0.30643,-0.39398 -0.787964,-0.61286 -0.481533,-0.23347 -1.079802,-0.23347 -0.598269,0 -1.167354,0.23347 -0.569085,0.21888 -1.050618,0.61286 -0.466942,0.39398 -0.802556,0.91929 -0.321022,0.52531 -0.437757,1.12358 -0.131328,0.59827 -0.01459,1.12358 0.131327,0.52531 0.437757,0.91929 0.321023,0.39398 0.802556,0.62745 0.481533,0.21888 1.079802,0.21888 z"
         style="font-style:italic;font-variant:normal;font-weight:bold;font-stretch:normal;font-family:'The Bold Font';-inkscape-font-specification:'The Bold Font Bold Italic';fill:#000000;stroke-width:0.36479801"
         id="path844"
         inkscape:connector-curvature="0" />
      <path
         d="m 52.504117,298.1366 h -6.37667 l 2.145013,-10.72507 h 2.466034 l -1.648887,8.25903 h 3.910635 z"
         style="font-style:italic;font-variant:normal;font-weight:bold;font-stretch:normal;font-family:'The Bold Font';-inkscape-font-specification:'The Bold Font Bold Italic';fill:#000000;stroke-width:0.36479801"
         id="path846"
         inkscape:connector-curvature="0" />
      <path
         d="m 55.960352,296.8671 q -0.102143,0.52531 -0.554493,0.9047 -0.437758,0.3648 -0.963067,0.3648 -0.525309,0 -0.831739,-0.3648 -0.291839,-0.37939 -0.189695,-0.9047 0.116735,-0.52531 0.554493,-0.89011 0.452349,-0.37939 0.977658,-0.37939 0.52531,0 0.817148,0.37939 0.30643,0.3648 0.189695,0.89011 z"
         style="font-style:italic;font-variant:normal;font-weight:bold;font-stretch:normal;font-family:'The Bold Font';-inkscape-font-specification:'The Bold Font Bold Italic';fill:#000000;stroke-width:0.36479801"
         id="path848"
         inkscape:connector-curvature="0" />
      <path
         d="m 63.614045,287.41153 q 1.108986,0 1.999093,0.42317 0.890108,0.42317 1.473784,1.15276 0.598269,0.71501 0.817148,1.69266 0.233471,0.97766 0.01459,2.08665 -0.233471,1.10899 -0.846332,2.08664 -0.61286,0.97766 -1.488376,1.70726 -0.875515,0.715 -1.940725,1.13817 -1.06521,0.42316 -2.174197,0.42316 -1.108986,0 -1.999093,-0.42316 -0.890107,-0.42317 -1.473784,-1.13817 -0.569085,-0.7296 -0.802556,-1.70726 -0.23347,-0.97765 0,-2.08664 0.218879,-1.10899 0.83174,-2.08665 0.627453,-0.97765 1.488376,-1.69266 0.860923,-0.72959 1.926134,-1.15276 1.06521,-0.42317 2.174196,-0.42317 z m -1.648887,8.24444 q 0.598269,0 1.167354,-0.21888 0.569085,-0.23347 1.036026,-0.62745 0.481533,-0.39398 0.802556,-0.91929 0.335614,-0.52531 0.466941,-1.12358 0.116736,-0.59827 -0.01459,-1.12358 -0.116735,-0.52531 -0.437757,-0.91929 -0.306431,-0.39398 -0.787964,-0.61286 -0.481534,-0.23347 -1.079802,-0.23347 -0.598269,0 -1.167354,0.23347 -0.569085,0.21888 -1.050618,0.61286 -0.466942,0.39398 -0.802556,0.91929 -0.321022,0.52531 -0.437758,1.12358 -0.131327,0.59827 -0.01459,1.12358 0.131328,0.52531 0.437758,0.91929 0.321022,0.39398 0.802556,0.62745 0.481533,0.21888 1.079802,0.21888 z"
         style="font-style:italic;font-variant:normal;font-weight:bold;font-stretch:normal;font-family:'The Bold Font';-inkscape-font-specification:'The Bold Font Bold Italic';fill:#000000;stroke-width:0.36479801"
         id="path850"
         inkscape:connector-curvature="0" />
      <path
         d="m 71.353235,295.36413 q -0.189695,0.0292 -0.393982,0.0438 -0.189695,0.0146 -0.393981,0.0292 l -0.539902,2.69951 h -2.466034 l 2.13042,-10.68129 h 2.466035 q 0.919291,0.0146 1.648887,0.33561 0.744188,0.32103 1.240314,0.86093 0.510717,0.5399 0.700412,1.2549 0.204287,0.71501 0.04378,1.53215 -0.175104,0.86093 -0.685821,1.60512 -0.510717,0.72959 -1.284089,1.26949 l 1.605112,3.82309 h -2.903793 z m -0.291838,-2.40767 q 0.393982,-0.0146 0.773372,-0.13132 0.393982,-0.13133 0.700412,-0.33562 0.30643,-0.20428 0.510717,-0.46694 0.218879,-0.27725 0.277247,-0.58368 0.05837,-0.30643 -0.04378,-0.56908 -0.102143,-0.26265 -0.335614,-0.46694 -0.218879,-0.20429 -0.554493,-0.32102 -0.335614,-0.13133 -0.729596,-0.14592 z"
         style="font-style:italic;font-variant:normal;font-weight:bold;font-stretch:normal;font-family:'The Bold Font';-inkscape-font-specification:'The Bold Font Bold Italic';fill:#000000;stroke-width:0.36479801"
         id="path852"
         inkscape:connector-curvature="0" />
      <path
         d="m 86.416198,292.13932 -1.196537,5.99728 h -2.480627 l 0.05837,-0.26266 q -0.437758,0.14592 -0.890107,0.21888 -0.437758,0.0584 -0.860924,0.0584 -1.036026,0 -1.955317,-0.39398 -0.904699,-0.39399 -1.546744,-1.18195 -0.627453,-0.78796 -0.817148,-1.76562 -0.189695,-0.99225 0.01459,-2.02828 0.218879,-1.03603 0.802556,-2.02828 0.583677,-0.99225 1.532152,-1.78021 0.933883,-0.78796 1.999093,-1.18195 1.079802,-0.39398 2.115829,-0.39398 1.036026,0 1.940725,0.39398 0.919291,0.39399 1.561336,1.18195 l -2.101237,1.75103 q -0.350206,-0.42317 -0.846331,-0.62745 -0.496126,-0.21888 -1.050619,-0.21888 -0.554493,0 -1.138169,0.21888 -0.583677,0.20428 -1.079803,0.62745 -0.510717,0.42317 -0.846331,0.96307 -0.321022,0.5399 -0.437758,1.09439 -0.102143,0.55449 0,1.0944 0.116736,0.5399 0.45235,0.96306 0.30643,0.37939 0.729596,0.59827 0.437758,0.20429 0.933883,0.24806 0.496125,0.0292 1.021434,-0.10214 0.52531,-0.13133 1.006843,-0.43776 l 0.102143,-0.5399 h -2.145012 l 0.496125,-2.46603 z"
         style="font-style:italic;font-variant:normal;font-weight:bold;font-stretch:normal;font-family:'The Bold Font';-inkscape-font-specification:'The Bold Font Bold Italic';fill:#000000;stroke-width:0.36479801"
         id="path854"
         inkscape:connector-curvature="0" />
    </g>
  </g>
</svg>
