<?xml version="1.0" encoding="UTF-8" standalone="no"?>
<!-- Created with Inkscape (http://www.inkscape.org/) -->

<svg
   xmlns:dc="http://purl.org/dc/elements/1.1/"
   xmlns:cc="http://creativecommons.org/ns#"
   xmlns:rdf="http://www.w3.org/1999/02/22-rdf-syntax-ns#"
   xmlns:svg="http://www.w3.org/2000/svg"
   xmlns="http://www.w3.org/2000/svg"
   xmlns:sodipodi="http://sodipodi.sourceforge.net/DTD/sodipodi-0.dtd"
   xmlns:inkscape="http://www.inkscape.org/namespaces/inkscape"
   width="300"
   height="110"
   viewBox="0 0 79.375 29.104166"
   version="1.1"
   id="svg8"
   inkscape:version="0.92.3 (2405546, 2018-03-11)"
   sodipodi:docname="pystol-base.svg"
   inkscape:export-filename="C:\Users\strix\Dropbox\logo-for-pystol\pystol.png"
   inkscape:export-xdpi="100.095"
   inkscape:export-ydpi="100.095">
  <defs
     id="defs2" />
  <sodipodi:namedview
     id="base"
     pagecolor="#ffffff"
     bordercolor="#666666"
     borderopacity="1.0"
     inkscape:pageopacity="0.0"
     inkscape:pageshadow="2"
     inkscape:zoom="16"
     inkscape:cx="32.648383"
     inkscape:cy="109.86117"
     inkscape:document-units="mm"
     inkscape:current-layer="layer1"
     showgrid="false"
     inkscape:snap-bbox="true"
     inkscape:bbox-paths="true"
     inkscape:bbox-nodes="true"
     inkscape:snap-bbox-edge-midpoints="true"
     inkscape:snap-bbox-midpoints="true"
     inkscape:snap-intersection-paths="true"
     inkscape:window-width="3840"
     inkscape:window-height="1537"
     inkscape:window-x="-8"
     inkscape:window-y="-8"
     inkscape:window-maximized="1"
     inkscape:snap-global="true"
     units="px" />
  <metadata
     id="metadata5">
    <rdf:RDF>
      <cc:Work
         rdf:about="">
        <dc:format>image/svg+xml</dc:format>
        <dc:type
           rdf:resource="http://purl.org/dc/dcmitype/StillImage" />
        <dc:title></dc:title>
      </cc:Work>
    </rdf:RDF>
  </metadata>
  <g
     inkscape:label="Capa 1"
     inkscape:groupmode="layer"
     id="layer1"
     transform="translate(0,-267.89588)">
    <flowRoot
       xml:space="preserve"
       id="flowRoot1527"
       style="font-style:normal;font-weight:normal;font-size:40px;line-height:1.25;font-family:sans-serif;letter-spacing:0px;word-spacing:0px;fill:#000000;fill-opacity:1;stroke:none"
       transform="scale(0.26458333)"><flowRegion
         id="flowRegion1529"><rect
           id="rect1531"
           width="2169.4036"
           height="1187.9395"
           x="1066.317"
           y="2375.5129" /></flowRegion><flowPara
         id="flowPara1533" /></flowRoot>    <g
       id="g929"
       transform="matrix(0.17053886,0,0,0.17053886,-15.348691,249.82142)">
      <g
         id="text1454-8-4-0"
         style="font-style:normal;font-weight:normal;font-size:59.9716568px;line-height:1.25;font-family:sans-serif;letter-spacing:0px;word-spacing:0px;fill:#000000;fill-opacity:1;stroke:none;stroke-width:1.4992913"
         aria-label="YSTOL.org">
        <path
           id="path899"
           style="font-style:italic;font-variant:normal;font-weight:bold;font-stretch:normal;font-family:'The Bold Font';-inkscape-font-specification:'The Bold Font Bold Italic';fill:#000000;stroke-width:1.4992913"
           d="m 247.96378,275.20731 7.61641,-12.47411 -8.69589,-31.90492 h 11.21469 l 5.21754,19.13096 11.57453,-19.13096 h 10.97481 l -26.92727,44.37903 z"
           inkscape:connector-curvature="0" />
        <path
           id="path901"
           style="font-style:italic;font-variant:normal;font-weight:bold;font-stretch:normal;font-family:'The Bold Font';-inkscape-font-specification:'The Bold Font Bold Italic';fill:#000000;stroke-width:1.4992913"
           d="m 295.8371,276.04691 q -2.09901,0 -4.07808,-0.59972 -1.91909,-0.53974 -3.53832,-1.73918 -2.81867,-2.099 -3.95813,-5.39744 -1.13947,-3.35842 -0.35983,-7.31655 h 10.13521 q -0.35983,1.79915 0.23988,2.81867 0.59972,0.95955 1.13946,1.31938 0.89958,0.71966 2.15898,0.77963 1.25941,0.06 2.57879,-0.47977 0.89957,-0.35983 1.49929,-0.89958 0.59971,-0.53974 0.95954,-1.01952 0.4198,-0.53974 0.53975,-1.01952 0.17991,-0.47977 0.23988,-0.77963 0.06,-0.29986 0.06,-0.77963 0.06,-0.47977 -0.11995,-1.01952 -0.11994,-0.53974 -0.53974,-1.01951 -0.4198,-0.53975 -1.13946,-0.95955 -0.59972,-0.29986 -1.31938,-0.53975 -0.71966,-0.23988 -1.49929,-0.53974 -1.37935,-0.47977 -2.87864,-1.07949 -1.49929,-0.59972 -2.93861,-1.61924 -1.79915,-1.31937 -2.87864,-3.29844 -1.01952,-1.97906 -1.19943,-4.25798 -0.17992,-2.27893 0.47977,-4.67779 0.71966,-2.45884 2.33889,-4.67779 1.43932,-2.03904 3.35842,-3.53833 1.91909,-1.49929 4.07807,-2.3389 2.15898,-0.89957 4.4379,-1.07949 2.3389,-0.17991 4.55785,0.41981 2.21895,0.53974 3.83818,1.73917 1.61924,1.13947 2.63876,2.81867 1.01951,1.61924 1.31937,3.65827 0.29986,2.03904 -0.11994,4.25799 h -10.13521 q 0.23989,-1.37935 -0.53975,-1.91909 -0.71966,-0.53975 -1.31937,-0.71966 -0.11995,0 -0.59972,-0.06 -0.4198,-0.11995 -1.01952,0 -0.53974,0.06 -1.2594,0.4198 -0.65969,0.29986 -1.13946,1.01952 -0.65969,0.95954 -0.59972,2.03903 0.11994,1.01952 0.89958,1.61924 0.71966,0.47977 1.6792,0.89957 0.95955,0.35983 1.97907,0.71966 0.95954,0.29986 1.91909,0.65969 1.01952,0.35983 1.97906,0.8396 3.5983,1.79915 5.15757,5.27751 1.55926,3.47836 0.71966,7.73634 -0.83961,4.19802 -3.77822,7.67638 -2.93861,3.47835 -7.25657,5.2775 -1.73918,0.71966 -3.41838,1.01952 -1.67921,0.35983 -3.29844,0.35983 z"
           inkscape:connector-curvature="0" />
        <path
           id="path903"
           style="font-style:italic;font-variant:normal;font-weight:bold;font-stretch:normal;font-family:'The Bold Font';-inkscape-font-specification:'The Bold Font Bold Italic';fill:#000000;stroke-width:1.4992913"
           d="m 349.21843,231.00819 -2.03904,10.19519 h -8.456 l -6.7768,34.00393 h -10.13521 l 6.7768,-34.00393 h -8.39603 l 2.03903,-10.19519 z"
           inkscape:connector-curvature="0" />
        <path
           id="path905"
           style="font-style:italic;font-variant:normal;font-weight:bold;font-stretch:normal;font-family:'The Bold Font';-inkscape-font-specification:'The Bold Font Bold Italic';fill:#000000;stroke-width:1.4992913"
           d="m 372.49868,231.12814 q 4.55785,0 8.21612,1.73918 3.65827,1.73917 6.05713,4.73776 2.45884,2.93861 3.35842,6.95671 0.95954,4.0181 0.06,8.57595 -0.95955,4.55784 -3.47836,8.57594 -2.51881,4.0181 -6.11711,7.01669 -3.5983,2.93861 -7.97623,4.67779 -4.37793,1.73917 -8.93577,1.73917 -4.55785,0 -8.21612,-1.73917 -3.65827,-1.73918 -6.05714,-4.67779 -2.33889,-2.99859 -3.29844,-7.01669 -0.95955,-4.0181 0,-8.57594 0.89958,-4.55785 3.41839,-8.57595 2.57878,-4.0181 6.1171,-6.95671 3.53833,-2.99859 7.91626,-4.73776 4.37793,-1.73918 8.93578,-1.73918 z m -6.7768,33.88398 q 2.45884,0 4.79774,-0.89957 2.33889,-0.95955 4.25798,-2.57878 1.97907,-1.61924 3.29844,-3.77822 1.37935,-2.15898 1.9191,-4.61781 0.47977,-2.45884 -0.06,-4.61782 -0.47978,-2.15898 -1.79915,-3.77822 -1.25941,-1.61923 -3.23847,-2.51881 -1.97907,-0.95954 -4.43791,-0.95954 -2.45883,0 -4.79773,0.95954 -2.33889,0.89958 -4.31796,2.51881 -1.91909,1.61924 -3.29844,3.77822 -1.31938,2.15898 -1.79915,4.61782 -0.53974,2.45883 -0.06,4.61781 0.53974,2.15898 1.79915,3.77822 1.31938,1.61923 3.29844,2.57878 1.97906,0.89957 4.4379,0.89957 z"
           inkscape:connector-curvature="0" />
        <path
           id="path907"
           style="font-style:italic;font-variant:normal;font-weight:bold;font-stretch:normal;font-family:'The Bold Font';-inkscape-font-specification:'The Bold Font Bold Italic';fill:#000000;stroke-width:1.4992913"
           d="m 414.92113,275.20731 h -26.20761 l 8.81583,-44.07917 h 10.13521 l -6.7768,33.94396 h 16.07241 z"
           inkscape:connector-curvature="0" />
        <path
           id="path909"
           style="font-style:italic;font-variant:normal;font-weight:bold;font-stretch:normal;font-family:'The Bold Font';-inkscape-font-specification:'The Bold Font Bold Italic';fill:#000000;stroke-width:1.4992913"
           d="m 429.12598,269.98977 q -0.41981,2.15898 -2.27893,3.71824 -1.79915,1.4993 -3.95813,1.4993 -2.15898,0 -3.41838,-1.4993 -1.19943,-1.55926 -0.77963,-3.71824 0.47977,-2.15898 2.27892,-3.65827 1.85912,-1.55926 4.0181,-1.55926 2.15898,0 3.35841,1.55926 1.25941,1.49929 0.77964,3.65827 z"
           inkscape:connector-curvature="0" />
        <path
           id="path911"
           style="font-style:italic;font-variant:normal;font-weight:bold;font-stretch:normal;font-family:'The Bold Font';-inkscape-font-specification:'The Bold Font Bold Italic';fill:#000000;stroke-width:1.4992913"
           d="m 460.58205,231.12814 q 4.55785,0 8.21612,1.73918 3.65827,1.73917 6.05714,4.73776 2.45884,2.93861 3.35841,6.95671 0.95955,4.0181 0.06,8.57595 -0.95954,4.55784 -3.47835,8.57594 -2.51881,4.0181 -6.11711,7.01669 -3.5983,2.93861 -7.97623,4.67779 -4.37793,1.73917 -8.93578,1.73917 -4.55785,0 -8.21612,-1.73917 -3.65827,-1.73918 -6.05713,-4.67779 -2.3389,-2.99859 -3.29845,-7.01669 -0.95954,-4.0181 0,-8.57594 0.89958,-4.55785 3.41839,-8.57595 2.57878,-4.0181 6.11711,-6.95671 3.53833,-2.99859 7.91626,-4.73776 4.37793,-1.73918 8.93577,-1.73918 z m -6.77679,33.88398 q 2.45883,0 4.79773,-0.89957 2.33889,-0.95955 4.25799,-2.57878 1.97906,-1.61924 3.29844,-3.77822 1.37935,-2.15898 1.91909,-4.61781 0.47977,-2.45884 -0.06,-4.61782 -0.47977,-2.15898 -1.79915,-3.77822 -1.25941,-1.61923 -3.23847,-2.51881 -1.97906,-0.95954 -4.4379,-0.95954 -2.45884,0 -4.79773,0.95954 -2.3389,0.89958 -4.31796,2.51881 -1.9191,1.61924 -3.29845,3.77822 -1.31937,2.15898 -1.79915,4.61782 -0.53974,2.45883 -0.06,4.61781 0.53975,2.15898 1.79915,3.77822 1.31938,1.61923 3.29844,2.57878 1.97907,0.89957 4.43791,0.89957 z"
           inkscape:connector-curvature="0" />
        <path
           id="path913"
           style="font-style:italic;font-variant:normal;font-weight:bold;font-stretch:normal;font-family:'The Bold Font';-inkscape-font-specification:'The Bold Font Bold Italic';fill:#000000;stroke-width:1.4992913"
           d="m 492.38952,263.81269 q -0.77963,0.11994 -1.61923,0.17992 -0.77963,0.06 -1.61924,0.11994 l -2.21895,11.09476 h -10.13521 l 8.75586,-43.89926 h 10.13521 q 3.77822,0.06 6.7768,1.37935 3.05856,1.31938 5.09759,3.53833 2.09901,2.21895 2.87864,5.15756 0.8396,2.93861 0.17992,6.29703 -0.71966,3.53832 -2.81867,6.59688 -2.09901,2.99858 -5.27751,5.21753 l 6.59689,15.71258 h -11.93436 z m -1.19943,-9.89532 q 1.61923,-0.06 3.1785,-0.53975 1.61923,-0.53974 2.87864,-1.37935 1.2594,-0.8396 2.09901,-1.91909 0.89957,-1.13946 1.13946,-2.39886 0.23988,-1.25941 -0.17992,-2.3389 -0.4198,-1.07949 -1.37935,-1.91909 -0.89957,-0.83961 -2.27892,-1.31938 -1.37935,-0.53974 -2.99858,-0.59972 z"
           inkscape:connector-curvature="0" />
        <path
           id="path915"
           style="font-style:italic;font-variant:normal;font-weight:bold;font-stretch:normal;font-family:'The Bold Font';-inkscape-font-specification:'The Bold Font Bold Italic';fill:#000000;stroke-width:1.4992913"
           d="m 554.29714,250.55895 -4.91767,24.64836 h -10.19519 l 0.23989,-1.07949 q -1.79915,0.59971 -3.65827,0.89957 -1.79915,0.23989 -3.53833,0.23989 -4.25798,0 -8.0362,-1.61924 -3.71824,-1.61923 -6.35699,-4.8577 -2.57879,-3.23847 -3.35842,-7.25657 -0.77963,-4.07807 0.06,-8.33606 0.89958,-4.25799 3.29845,-8.33606 2.39886,-4.07808 6.29702,-7.31654 3.83819,-3.23847 8.21612,-4.85771 4.4379,-1.61923 8.69589,-1.61923 4.25798,0 7.97623,1.61923 3.77821,1.61924 6.41696,4.85771 l -8.63591,7.19659 q -1.43932,-1.73917 -3.47836,-2.57878 -2.03904,-0.89957 -4.31796,-0.89957 -2.27892,0 -4.67779,0.89957 -2.39887,0.83961 -4.4379,2.57878 -2.09901,1.73918 -3.47836,3.95813 -1.31937,2.21895 -1.79915,4.49788 -0.4198,2.27892 0,4.49787 0.47978,2.21895 1.85912,3.95813 1.25941,1.55926 2.99859,2.45884 1.79915,0.8396 3.83818,1.01952 2.03904,0.11994 4.19802,-0.4198 2.15898,-0.53975 4.13804,-1.79915 l 0.4198,-2.21896 h -8.81583 l 2.03904,-10.13521 z"
           inkscape:connector-curvature="0" />
      </g>
      <path
         inkscape:connector-curvature="0"
         id="path1865-0-4-4-3-5"
         d="m 119.80869,106.04695 -18.6252,32.26005 h -3.256601 l -7.9267,-7.68325 3.7801,10.42313 -3.7801,10.42366 7.9251,-7.68326 h 3.258701 l 18.6247,32.25953 h 40.4146 18.0878 l -40.4146,70.00091 -11.5471,19.99981 -5.7733,9.99939 h 11.5466 11.5476 57.7345 l 28.8675,-50.00006 h 57.7349 l 34.6413,-59.99995 -34.6413,-59.99996 h -54.5222 -14.7598 -58.5019 z m 3.7502,12.99973 h 7.4998 l 3.7501,6.49521 -3.7501,6.49521 h -7.4998 l -3.7502,-6.49521 z m 41.3246,7.00009 h 8.6604 8.66 29.1858 38.9129 26.1575 l 23.0937,40.00014 -23.0937,40.00014 h -39.9603 -6.2275 -11.5466 l -28.868,50.00006 h -34.6403 l 40.4141,-69.99936 5.7738,-10.00094 h 46.1874 5.7738 5.7733 l 5.7738,-9.9999 -5.7738,-9.99991 h -5.7733 -3.0639 -38.9129 -29.1858 -8.66 -8.6604 l -8.66,-15.00012 z m -41.3246,24.0099 h 7.4998 l 3.7501,6.49521 -3.7501,6.49469 h -7.4998 l -3.7502,-6.49469 z"
         style="opacity:1;vector-effect:none;fill:#c25d02;fill-opacity:1;stroke:none;stroke-width:30.63455009;stroke-linecap:round;stroke-linejoin:miter;stroke-miterlimit:4;stroke-dasharray:none;stroke-dashoffset:0;stroke-opacity:1" />
    </g>
  </g>
</svg>
