<?xml version="1.0" encoding="UTF-8" standalone="no"?>
<!-- Created with Inkscape (http://www.inkscape.org/) -->

<svg
   xmlns:dc="http://purl.org/dc/elements/1.1/"
   xmlns:cc="http://creativecommons.org/ns#"
   xmlns:rdf="http://www.w3.org/1999/02/22-rdf-syntax-ns#"
   xmlns:svg="http://www.w3.org/2000/svg"
   xmlns="http://www.w3.org/2000/svg"
   xmlns:sodipodi="http://sodipodi.sourceforge.net/DTD/sodipodi-0.dtd"
   xmlns:inkscape="http://www.inkscape.org/namespaces/inkscape"
   width="118"
   height="56"
   viewBox="0 0 31.220833 14.816666"
   version="1.1"
   id="full"
   inkscape:version="0.92.3 (2405546, 2018-03-11)"
   sodipodi:docname="pystol_full.svg"
   inkscape:export-filename="C:\Users\strix\Dropbox\logo-for-pystol\pystol.png"
   inkscape:export-xdpi="100.095"
   inkscape:export-ydpi="100.095">
  <defs
     id="defs2">
    <clipPath
       clipPathUnits="userSpaceOnUse"
       id="clipPath1086">
      <path
         d="m 785.047,369.133 h 105.824 v -7.764 H 785.047 Z"
         id="path1084"
         inkscape:connector-curvature="0" />
    </clipPath>
    <clipPath
       clipPathUnits="userSpaceOnUse"
       id="clipPath1090">
      <path
         d="m 785.047,369.133 h 105.824 v -7.764 H 785.047 Z"
         id="path1088"
         inkscape:connector-curvature="0" />
    </clipPath>
    <clipPath
       clipPathUnits="userSpaceOnUse"
       id="clipPath1054">
      <path
         d="M 784.271,387.718 H 891.649 V 367.684 H 784.271 Z"
         id="path1052"
         inkscape:connector-curvature="0" />
    </clipPath>
    <clipPath
       clipPathUnits="userSpaceOnUse"
       id="clipPath1058">
      <path
         d="M 784.271,387.718 H 891.649 V 367.684 H 784.271 Z"
         id="path1056"
         inkscape:connector-curvature="0" />
    </clipPath>
    <clipPath
       clipPathUnits="userSpaceOnUse"
       id="clipPath1054-6">
      <path
         d="M 784.271,387.718 H 891.649 V 367.684 H 784.271 Z"
         id="path1052-0"
         inkscape:connector-curvature="0" />
    </clipPath>
    <clipPath
       clipPathUnits="userSpaceOnUse"
       id="clipPath1058-6">
      <path
         d="M 784.271,387.718 H 891.649 V 367.684 H 784.271 Z"
         id="path1056-2"
         inkscape:connector-curvature="0" />
    </clipPath>
    <circle
       style="opacity:1;vector-effect:none;fill:#c25d02;fill-opacity:1;stroke:#c25d02;stroke-width:0;stroke-linecap:round;stroke-linejoin:miter;stroke-miterlimit:4;stroke-dasharray:none;stroke-dashoffset:0;stroke-opacity:1"
       id="path1712-8"
       cx="545.091"
       cy="1202.2144"
       r="24.123543"
       transform="matrix(0.36551469,-0.93080557,-0.93080557,-0.36551469,0,0)" />
    <circle
       style="opacity:1;vector-effect:none;fill:#c25d02;fill-opacity:1;stroke:#c25d02;stroke-width:0;stroke-linecap:round;stroke-linejoin:miter;stroke-miterlimit:4;stroke-dasharray:none;stroke-dashoffset:0;stroke-opacity:1"
       id="path1712-9"
       cx="545.091"
       cy="1202.2144"
       r="24.123543"
       transform="matrix(0.36551469,-0.93080557,-0.93080557,-0.36551469,0,0)" />
    <clipPath
       clipPathUnits="userSpaceOnUse"
       id="clipPath1054-6-9">
      <path
         d="M 784.271,387.718 H 891.649 V 367.684 H 784.271 Z"
         id="path1052-0-8"
         inkscape:connector-curvature="0" />
    </clipPath>
    <clipPath
       clipPathUnits="userSpaceOnUse"
       id="clipPath1058-6-1">
      <path
         d="M 784.271,387.718 H 891.649 V 367.684 H 784.271 Z"
         id="path1056-2-7"
         inkscape:connector-curvature="0" />
    </clipPath>
    <clipPath
       clipPathUnits="userSpaceOnUse"
       id="clipPath1054-6-4">
      <path
         d="M 784.271,387.718 H 891.649 V 367.684 H 784.271 Z"
         id="path1052-0-2"
         inkscape:connector-curvature="0" />
    </clipPath>
    <clipPath
       clipPathUnits="userSpaceOnUse"
       id="clipPath1058-6-15">
      <path
         d="M 784.271,387.718 H 891.649 V 367.684 H 784.271 Z"
         id="path1056-2-2"
         inkscape:connector-curvature="0" />
    </clipPath>
    <clipPath
       clipPathUnits="userSpaceOnUse"
       id="clipPath1054-6-4-3">
      <path
         d="M 784.271,387.718 H 891.649 V 367.684 H 784.271 Z"
         id="path1052-0-2-6"
         inkscape:connector-curvature="0" />
    </clipPath>
    <clipPath
       clipPathUnits="userSpaceOnUse"
       id="clipPath1058-6-15-0">
      <path
         d="M 784.271,387.718 H 891.649 V 367.684 H 784.271 Z"
         id="path1056-2-2-2"
         inkscape:connector-curvature="0" />
    </clipPath>
    <circle
       style="opacity:1;vector-effect:none;fill:#c25d02;fill-opacity:1;stroke:#c25d02;stroke-width:0;stroke-linecap:round;stroke-linejoin:miter;stroke-miterlimit:4;stroke-dasharray:none;stroke-dashoffset:0;stroke-opacity:1"
       id="path1712-2-8"
       cx="-54.698578"
       cy="-1303.1921"
       transform="rotate(-40.99342)"
       r="20.885929" />
    <circle
       style="opacity:1;vector-effect:none;fill:#c25d02;fill-opacity:1;stroke:#c25d02;stroke-width:0;stroke-linecap:round;stroke-linejoin:miter;stroke-miterlimit:4;stroke-dasharray:none;stroke-dashoffset:0;stroke-opacity:1"
       id="path1712-3"
       cx="49.713654"
       cy="1303.3918"
       r="20.885929"
       transform="rotate(138.78743)" />
    <clipPath
       clipPathUnits="userSpaceOnUse"
       id="clipPath1054-6-4-2">
      <path
         d="M 784.271,387.718 H 891.649 V 367.684 H 784.271 Z"
         id="path1052-0-2-2"
         inkscape:connector-curvature="0" />
    </clipPath>
    <clipPath
       clipPathUnits="userSpaceOnUse"
       id="clipPath1058-6-15-9">
      <path
         d="M 784.271,387.718 H 891.649 V 367.684 H 784.271 Z"
         id="path1056-2-2-8"
         inkscape:connector-curvature="0" />
    </clipPath>
    <circle
       style="opacity:1;vector-effect:none;fill:#c25d02;fill-opacity:1;stroke:#c25d02;stroke-width:0;stroke-linecap:round;stroke-linejoin:miter;stroke-miterlimit:4;stroke-dasharray:none;stroke-dashoffset:0;stroke-opacity:1"
       id="path1712-2-1"
       cx="-54.698578"
       cy="-1303.1921"
       transform="rotate(-40.99342)"
       r="20.885929" />
    <circle
       style="opacity:1;vector-effect:none;fill:#c25d02;fill-opacity:1;stroke:#c25d02;stroke-width:0;stroke-linecap:round;stroke-linejoin:miter;stroke-miterlimit:4;stroke-dasharray:none;stroke-dashoffset:0;stroke-opacity:1"
       id="path1712-5"
       cx="49.713654"
       cy="1303.3918"
       r="20.885929"
       transform="rotate(138.78743)" />
    <clipPath
       clipPathUnits="userSpaceOnUse"
       id="clipPath1054-6-0">
      <path
         d="M 784.271,387.718 H 891.649 V 367.684 H 784.271 Z"
         id="path1052-0-5"
         inkscape:connector-curvature="0" />
    </clipPath>
    <clipPath
       clipPathUnits="userSpaceOnUse"
       id="clipPath1058-6-8">
      <path
         d="M 784.271,387.718 H 891.649 V 367.684 H 784.271 Z"
         id="path1056-2-5"
         inkscape:connector-curvature="0" />
    </clipPath>
  </defs>
  <sodipodi:namedview
     id="base"
     pagecolor="#ffffff"
     bordercolor="#666666"
     borderopacity="1.0"
     inkscape:pageopacity="0.0"
     inkscape:pageshadow="2"
     inkscape:zoom="11.313708"
     inkscape:cx="112.66925"
     inkscape:cy="27.527553"
     inkscape:document-units="mm"
     inkscape:current-layer="layer1"
     showgrid="false"
     inkscape:snap-bbox="true"
     inkscape:bbox-paths="true"
     inkscape:bbox-nodes="true"
     inkscape:snap-bbox-edge-midpoints="true"
     inkscape:snap-bbox-midpoints="true"
     inkscape:snap-intersection-paths="true"
     inkscape:window-width="3840"
     inkscape:window-height="1537"
     inkscape:window-x="-8"
     inkscape:window-y="-8"
     inkscape:window-maximized="1"
     inkscape:snap-global="true"
     inkscape:snap-nodes="true"
     inkscape:snap-smooth-nodes="true"
     inkscape:snap-midpoints="true"
     units="px" />
  <metadata
     id="metadata5">
    <rdf:RDF>
      <cc:Work
         rdf:about="">
        <dc:format>image/svg+xml</dc:format>
        <dc:type
           rdf:resource="http://purl.org/dc/dcmitype/StillImage" />
        <dc:title></dc:title>
      </cc:Work>
    </rdf:RDF>
  </metadata>
  <g
     inkscape:label="Capa 1"
     inkscape:groupmode="layer"
     id="layer1"
     transform="translate(0,-282.18337)">
    <flowRoot
       xml:space="preserve"
       id="flowRoot1527"
       style="font-style:normal;font-weight:normal;font-size:40px;line-height:1.25;font-family:sans-serif;letter-spacing:0px;word-spacing:0px;fill:#000000;fill-opacity:1;stroke:none"
       transform="scale(0.26458333)"><flowRegion
         id="flowRegion1529"><rect
           id="rect1531"
           width="2169.4036"
           height="1187.9395"
           x="1066.317"
           y="2375.5129" /></flowRegion><flowPara
         id="flowPara1533" /></flowRoot>    <g
       id="g953"
       transform="matrix(0.07296522,0,0,0.07296522,-51.254165,315.28845)">
      <g
         aria-label="YSTOL.ORG"
         style="font-style:normal;font-weight:normal;font-size:51.83813095px;line-height:1.25;font-family:sans-serif;letter-spacing:0px;word-spacing:0px;fill:#ffffff;fill-opacity:1;stroke:none;stroke-width:1.29595315"
         id="text1454-7">
        <path
           inkscape:connector-curvature="0"
           d="m 854.86748,-267.8866 6.58344,-10.78233 -7.51653,-27.57788 h 9.69374 l 4.50991,16.53636 10.00476,-16.53636 h 9.48638 l -23.27532,38.36021 z"
           style="font-style:italic;font-variant:normal;font-weight:bold;font-stretch:normal;font-family:'The Bold Font';-inkscape-font-specification:'The Bold Font Bold Italic';fill:#ffffff;stroke-width:1.29595315"
           id="path1006" />
        <path
           inkscape:connector-curvature="0"
           d="m 896.24808,-267.16086 q -1.81433,0 -3.52499,-0.51838 -1.65882,-0.46655 -3.05845,-1.50331 -2.4364,-1.81433 -3.42132,-4.66543 -0.98492,-2.90294 -0.31103,-6.32425 h 8.76065 q -0.31103,1.55514 0.20735,2.43639 0.51838,0.82941 0.98492,1.14044 0.77757,0.62205 1.86618,0.67389 1.0886,0.0518 2.22904,-0.4147 0.77757,-0.31103 1.29595,-0.77757 0.51838,-0.46655 0.82941,-0.88125 0.36287,-0.46655 0.46654,-0.88125 0.15552,-0.41471 0.20735,-0.6739 0.0518,-0.25919 0.0518,-0.67389 0.0518,-0.41471 -0.10367,-0.88125 -0.10368,-0.46654 -0.46655,-0.88125 -0.36286,-0.46654 -0.98492,-0.82941 -0.51838,-0.25919 -1.14044,-0.46654 -0.62206,-0.20735 -1.29595,-0.46654 -1.19228,-0.41471 -2.48823,-0.93309 -1.29596,-0.51838 -2.54007,-1.39963 -1.55515,-1.14044 -2.48823,-2.8511 -0.88125,-1.71066 -1.03677,-3.68051 -0.15551,-1.96984 0.41471,-4.04337 0.62206,-2.12536 2.02169,-4.04337 1.24411,-1.7625 2.90293,-3.05845 1.65882,-1.29596 3.52499,-2.02169 1.86618,-0.77757 3.83603,-0.93309 2.02168,-0.15551 3.93969,0.36287 1.91802,0.46654 3.31764,1.50331 1.39963,0.98492 2.28088,2.43639 0.88125,1.39963 1.14044,3.16212 0.25919,1.7625 -0.10367,3.68051 h -8.76065 q 0.20735,-1.19228 -0.46654,-1.65882 -0.62206,-0.46654 -1.14044,-0.62206 -0.10368,0 -0.51838,-0.0518 -0.36287,-0.10368 -0.88125,0 -0.46654,0.0518 -1.0886,0.36286 -0.57022,0.25919 -0.98493,0.88125 -0.57022,0.82941 -0.51838,1.7625 0.10368,0.88125 0.77758,1.39963 0.62205,0.4147 1.45146,0.77757 0.82941,0.31103 1.71066,0.62206 0.82941,0.25919 1.65882,0.57022 0.88125,0.31102 1.71066,0.72573 3.11029,1.55514 4.45808,4.56175 1.34779,3.00662 0.62206,6.68712 -0.72574,3.62867 -3.26581,6.63528 -2.54006,3.00662 -6.27241,4.56176 -1.50331,0.62206 -2.95477,0.88125 -1.45147,0.31103 -2.8511,0.31103 z"
           style="font-style:italic;font-variant:normal;font-weight:bold;font-stretch:normal;font-family:'The Bold Font';-inkscape-font-specification:'The Bold Font Bold Italic';fill:#ffffff;stroke-width:1.29595315"
           id="path1008" />
        <path
           inkscape:connector-curvature="0"
           d="m 942.38969,-306.0913 -1.7625,8.81248 h -7.30918 l -5.85771,29.39222 h -8.76064 l 5.85771,-29.39222 h -7.25734 l 1.7625,-8.81248 z"
           style="font-style:italic;font-variant:normal;font-weight:bold;font-stretch:normal;font-family:'The Bold Font';-inkscape-font-specification:'The Bold Font Bold Italic';fill:#ffffff;stroke-width:1.29595315"
           id="path1010" />
        <path
           inkscape:connector-curvature="0"
           d="m 962.5126,-305.98762 q 3.9397,0 7.10182,1.5033 3.16213,1.50331 5.23565,4.09522 2.12537,2.54006 2.90294,6.01322 0.82941,3.47315 0.0518,7.41285 -0.82941,3.9397 -3.00662,7.41285 -2.1772,3.47316 -5.28749,6.06507 -3.11028,2.54006 -6.89447,4.04337 -3.78418,1.50331 -7.72388,1.50331 -3.9397,0 -7.10182,-1.50331 -3.16213,-1.50331 -5.23565,-4.04337 -2.02169,-2.59191 -2.8511,-6.06507 -0.82941,-3.47315 0,-7.41285 0.77757,-3.9397 2.95477,-7.41285 2.22904,-3.47316 5.28749,-6.01322 3.05845,-2.59191 6.84264,-4.09522 3.78418,-1.5033 7.72388,-1.5033 z m -5.85771,29.28854 q 2.12536,0 4.14705,-0.77757 2.02169,-0.82941 3.68051,-2.22904 1.71065,-1.39963 2.85109,-3.2658 1.19228,-1.86618 1.65882,-3.99154 0.41471,-2.12536 -0.0518,-3.99153 -0.41471,-1.86618 -1.55515,-3.26581 -1.0886,-1.39963 -2.79926,-2.1772 -1.71066,-0.82941 -3.83602,-0.82941 -2.12536,0 -4.14705,0.82941 -2.02169,0.77757 -3.73235,2.1772 -1.65882,1.39963 -2.85109,3.26581 -1.14044,1.86617 -1.55515,3.99153 -0.46654,2.12536 -0.0518,3.99154 0.46654,1.86617 1.55514,3.2658 1.14044,1.39963 2.8511,2.22904 1.71065,0.77757 3.83602,0.77757 z"
           style="font-style:italic;font-variant:normal;font-weight:bold;font-stretch:normal;font-family:'The Bold Font';-inkscape-font-specification:'The Bold Font Bold Italic';fill:#ffffff;stroke-width:1.29595315"
           id="path1012" />
        <path
           inkscape:connector-curvature="0"
           d="m 999.1816,-267.8866 h -22.65326 l 7.6202,-38.10102 h 8.76065 l -5.85771,29.34038 h 13.89262 z"
           style="font-style:italic;font-variant:normal;font-weight:bold;font-stretch:normal;font-family:'The Bold Font';-inkscape-font-specification:'The Bold Font Bold Italic';fill:#ffffff;stroke-width:1.29595315"
           id="path1014" />
        <path
           inkscape:connector-curvature="0"
           d="m 1011.46,-272.39651 q -0.3629,1.86617 -1.9699,3.21396 -1.5551,1.29595 -3.4213,1.29595 -1.8662,0 -2.9548,-1.29595 -1.0367,-1.34779 -0.6739,-3.21396 0.4147,-1.86618 1.9699,-3.16213 1.6069,-1.34779 3.4731,-1.34779 1.8662,0 2.903,1.34779 1.0886,1.29595 0.6739,3.16213 z"
           style="font-style:italic;font-variant:normal;font-weight:bold;font-stretch:normal;font-family:'The Bold Font';-inkscape-font-specification:'The Bold Font Bold Italic';fill:#ffffff;stroke-width:1.29595315"
           id="path1016" />
        <path
           inkscape:connector-curvature="0"
           d="m 1038.6498,-305.98762 q 3.9397,0 7.1019,1.5033 3.1621,1.50331 5.2356,4.09522 2.1254,2.54006 2.903,6.01322 0.8294,3.47315 0.052,7.41285 -0.8294,3.9397 -3.0066,7.41285 -2.1772,3.47316 -5.2875,6.06507 -3.1103,2.54006 -6.8945,4.04337 -3.7842,1.50331 -7.7239,1.50331 -3.9397,0 -7.1018,-1.50331 -3.1621,-1.50331 -5.2356,-4.04337 -2.0217,-2.59191 -2.8511,-6.06507 -0.8294,-3.47315 0,-7.41285 0.7775,-3.9397 2.9547,-7.41285 2.2291,-3.47316 5.2875,-6.01322 3.0585,-2.59191 6.8427,-4.09522 3.7842,-1.5033 7.7238,-1.5033 z m -5.8577,29.28854 q 2.1254,0 4.1471,-0.77757 2.0217,-0.82941 3.6805,-2.22904 1.7107,-1.39963 2.8511,-3.2658 1.1923,-1.86618 1.6588,-3.99154 0.4147,-2.12536 -0.052,-3.99153 -0.4147,-1.86618 -1.5552,-3.26581 -1.0886,-1.39963 -2.7992,-2.1772 -1.7107,-0.82941 -3.836,-0.82941 -2.1254,0 -4.1471,0.82941 -2.0217,0.77757 -3.7323,2.1772 -1.6589,1.39963 -2.8511,3.26581 -1.1405,1.86617 -1.5552,3.99153 -0.4665,2.12536 -0.052,3.99154 0.4665,1.86617 1.5551,3.2658 1.1405,1.39963 2.8511,2.22904 1.7107,0.77757 3.836,0.77757 z"
           style="font-style:italic;font-variant:normal;font-weight:bold;font-stretch:normal;font-family:'The Bold Font';-inkscape-font-specification:'The Bold Font Bold Italic';fill:#ffffff;stroke-width:1.29595315"
           id="path1018" />
        <path
           inkscape:connector-curvature="0"
           d="m 1066.1435,-277.73584 q -0.6739,0.10367 -1.3996,0.15551 -0.6739,0.0518 -1.3997,0.10368 l -1.918,9.59005 h -8.7606 l 7.5684,-37.94551 h 8.7606 q 3.2658,0.0518 5.8577,1.19228 2.6438,1.14044 4.4063,3.05845 1.8143,1.91801 2.4882,4.45808 0.7257,2.54007 0.1555,5.443 -0.6221,3.05845 -2.4364,5.7022 -1.8143,2.5919 -4.5618,4.50991 l 5.7022,13.58159 h -10.3157 z m -1.0368,-8.55329 q 1.3997,-0.0518 2.7475,-0.46655 1.3996,-0.46654 2.4882,-1.19227 1.0886,-0.72574 1.8143,-1.65882 0.7776,-0.98493 0.985,-2.07353 0.2073,-1.0886 -0.1556,-2.02169 -0.3628,-0.93308 -1.1922,-1.65882 -0.7776,-0.72573 -1.9699,-1.14043 -1.1923,-0.46655 -2.5919,-0.51839 z"
           style="font-style:italic;font-variant:normal;font-weight:bold;font-stretch:normal;font-family:'The Bold Font';-inkscape-font-specification:'The Bold Font Bold Italic';fill:#ffffff;stroke-width:1.29595315"
           id="path1020" />
        <path
           inkscape:connector-curvature="0"
           d="m 1119.655,-289.19207 -4.2507,21.30547 h -8.8125 l 0.2074,-0.93308 q -1.5552,0.51838 -3.1621,0.77757 -1.5552,0.20735 -3.0585,0.20735 -3.6805,0 -6.9463,-1.39963 -3.214,-1.39963 -5.4949,-4.19889 -2.229,-2.79926 -2.9029,-6.27241 -0.6739,-3.52499 0.052,-7.2055 0.7775,-3.68051 2.851,-7.2055 2.0736,-3.52499 5.4431,-6.32425 3.3176,-2.79926 7.1018,-4.19889 3.836,-1.39963 7.5165,-1.39963 3.6805,0 6.8945,1.39963 3.2658,1.39963 5.5467,4.19889 l -7.4647,6.22057 q -1.2441,-1.5033 -3.0066,-2.22904 -1.7625,-0.77757 -3.7324,-0.77757 -1.9698,0 -4.0434,0.77757 -2.0735,0.72574 -3.836,2.22904 -1.8143,1.50331 -3.0066,3.42132 -1.1404,1.91801 -1.5551,3.88786 -0.3629,1.96985 0,3.88786 0.4147,1.91801 1.6069,3.42132 1.0886,1.34779 2.5919,2.12536 1.5552,0.72573 3.3177,0.88125 1.7625,0.10367 3.6287,-0.36287 1.8661,-0.46654 3.5768,-1.55514 l 0.3629,-1.91801 h -7.6203 l 1.7625,-8.76065 z"
           style="font-style:italic;font-variant:normal;font-weight:bold;font-stretch:normal;font-family:'The Bold Font';-inkscape-font-specification:'The Bold Font Bold Italic';fill:#ffffff;stroke-width:1.29595315"
           id="path1022" />
      </g>
      <path
         inkscape:connector-curvature="0"
         id="path1865-0-4-9"
         d="m 742.01832,-437.16083 -18.62521,32.26005 h -3.25665 l -7.92665,-7.68325 3.78013,10.42313 -3.78013,10.42366 7.92509,-7.68326 h 3.25872 l 18.6247,32.25953 h 40.41458 18.08779 l -40.41458,70.00091 -11.5471,19.99981 -5.77329,9.99939 h 11.54658 11.5476 57.73447 l 28.86749,-50.00006 h 57.73497 l 34.64131,-59.99995 -34.64131,-59.99996 H 855.69459 840.93476 782.4329 Z m 3.75016,12.99973 h 7.4998 l 3.75015,6.49521 -3.75015,6.49521 h -7.4998 l -3.75016,-6.49521 z m 41.3246,7.00009 h 8.66045 8.65995 29.18581 38.91288 26.15756 l 23.0937,40.00014 -23.0937,40.00014 h -39.96034 -6.22753 -11.54657 l -28.86803,50.00006 h -34.64025 l 40.41407,-69.99936 5.77382,-10.00094 h 46.18736 5.77379 5.77331 l 5.77379,-9.9999 -5.77379,-9.99991 h -5.77331 -3.06388 -38.91288 -29.18581 -8.65995 -8.66045 l -8.65994,-15.00012 z m -41.3246,24.0099 h 7.4998 l 3.75015,6.49521 -3.75015,6.49469 h -7.4998 l -3.75016,-6.49469 z"
         style="opacity:1;vector-effect:none;fill:#c25d02;fill-opacity:1;stroke:none;stroke-width:30.63455009;stroke-linecap:round;stroke-linejoin:miter;stroke-miterlimit:4;stroke-dasharray:none;stroke-dashoffset:0;stroke-opacity:1" />
    </g>
    <g
       id="text1454-8-8-4-45-7-3"
       style="font-style:normal;font-weight:normal;font-size:24.97233963px;line-height:1.25;font-family:sans-serif;letter-spacing:0px;word-spacing:0px;fill:#008000;fill-opacity:1;stroke:none;stroke-width:0.62430835"
       aria-label="THE FAULT INJECTION PLATFORM"
       transform="matrix(0.28987731,0,0,0.28987731,-461.36484,-773.19468)" />
    <flowRoot
       xml:space="preserve"
       id="flowRoot1951"
       style="font-style:normal;font-weight:normal;font-size:40px;line-height:1.25;font-family:sans-serif;letter-spacing:0px;word-spacing:0px;fill:#000000;fill-opacity:1;stroke:none"><flowRegion
         id="flowRegion1953"><rect
           id="rect1955"
           width="309.10135"
           height="312.69556"
           x="-3154.8105"
           y="-2107.5894" /></flowRegion><flowPara
         id="flowPara1957" /></flowRoot>  </g>
</svg>
